<mxfile host="Electron" agent="Mozilla/5.0 (X11; Linux x86_64) AppleWebKit/537.36 (KHTML, like Gecko) draw.io/24.7.5 Chrome/126.0.6478.183 Electron/31.3.0 Safari/537.36" version="24.7.5" pages="3">
  <diagram name="Page-1" id="oVRBVcIYXjvZZnSzOE3l">
    <mxGraphModel dx="1434" dy="855" grid="0" gridSize="10" guides="1" tooltips="1" connect="1" arrows="1" fold="1" page="1" pageScale="1" pageWidth="827" pageHeight="1169" background="#000000" math="1" shadow="0">
      <root>
        <mxCell id="0" />
        <mxCell id="1" parent="0" />
        <mxCell id="zD_FLAQN2NRL1VXCUL-K-67" value="" style="group" parent="1" vertex="1" connectable="0">
          <mxGeometry x="280" y="450" width="320" height="190" as="geometry" />
        </mxCell>
        <mxCell id="zD_FLAQN2NRL1VXCUL-K-66" value="" style="endArrow=none;dashed=1;html=1;rounded=0;fontSize=12;startSize=8;endSize=8;curved=1;entryX=0.5;entryY=1;entryDx=0;entryDy=0;strokeColor=#FF0080;" parent="zD_FLAQN2NRL1VXCUL-K-67" target="zD_FLAQN2NRL1VXCUL-K-65" edge="1">
          <mxGeometry width="50" height="50" relative="1" as="geometry">
            <mxPoint x="80" y="120" as="sourcePoint" />
            <mxPoint x="180" y="40" as="targetPoint" />
          </mxGeometry>
        </mxCell>
        <mxCell id="zD_FLAQN2NRL1VXCUL-K-33" value="" style="rounded=0;whiteSpace=wrap;html=1;fontSize=16;fillColor=#000000;" parent="zD_FLAQN2NRL1VXCUL-K-67" vertex="1">
          <mxGeometry x="120" y="130" width="120" height="60" as="geometry" />
        </mxCell>
        <mxCell id="zD_FLAQN2NRL1VXCUL-K-34" value="" style="endArrow=none;html=1;rounded=0;fontSize=12;startSize=8;endSize=8;curved=1;" parent="zD_FLAQN2NRL1VXCUL-K-67" edge="1">
          <mxGeometry width="50" height="50" relative="1" as="geometry">
            <mxPoint y="190" as="sourcePoint" />
            <mxPoint x="320" y="190" as="targetPoint" />
          </mxGeometry>
        </mxCell>
        <mxCell id="zD_FLAQN2NRL1VXCUL-K-35" value="" style="endArrow=none;html=1;rounded=0;fontSize=12;startSize=8;endSize=8;curved=1;" parent="zD_FLAQN2NRL1VXCUL-K-67" edge="1">
          <mxGeometry width="50" height="50" relative="1" as="geometry">
            <mxPoint y="190" as="sourcePoint" />
            <mxPoint y="30" as="targetPoint" />
          </mxGeometry>
        </mxCell>
        <mxCell id="zD_FLAQN2NRL1VXCUL-K-48" value="" style="endArrow=none;dashed=1;html=1;rounded=0;fontSize=12;startSize=8;endSize=8;curved=1;" parent="zD_FLAQN2NRL1VXCUL-K-67" edge="1">
          <mxGeometry width="50" height="50" relative="1" as="geometry">
            <mxPoint x="180" y="130" as="sourcePoint" />
            <mxPoint x="180" y="60" as="targetPoint" />
          </mxGeometry>
        </mxCell>
        <mxCell id="zD_FLAQN2NRL1VXCUL-K-49" value="" style="endArrow=classicThin;html=1;rounded=0;fontSize=12;startSize=8;endSize=8;curved=1;exitX=1.031;exitY=0.506;exitDx=0;exitDy=0;exitPerimeter=0;endFill=1;" parent="zD_FLAQN2NRL1VXCUL-K-67" source="zD_FLAQN2NRL1VXCUL-K-33" edge="1">
          <mxGeometry width="50" height="50" relative="1" as="geometry">
            <mxPoint x="140" y="190" as="sourcePoint" />
            <mxPoint x="280" y="160" as="targetPoint" />
          </mxGeometry>
        </mxCell>
        <mxCell id="zD_FLAQN2NRL1VXCUL-K-50" value="" style="endArrow=classicThin;startArrow=none;html=1;rounded=0;fontSize=12;startSize=8;endSize=8;curved=1;startFill=0;endFill=1;" parent="zD_FLAQN2NRL1VXCUL-K-67" edge="1">
          <mxGeometry width="50" height="50" relative="1" as="geometry">
            <mxPoint y="70" as="sourcePoint" />
            <mxPoint x="180" y="70" as="targetPoint" />
          </mxGeometry>
        </mxCell>
        <mxCell id="zD_FLAQN2NRL1VXCUL-K-51" value="`d`" style="text;html=1;strokeColor=none;fillColor=none;align=center;verticalAlign=middle;whiteSpace=wrap;rounded=0;fontSize=16;" parent="zD_FLAQN2NRL1VXCUL-K-67" vertex="1">
          <mxGeometry x="90" y="50" width="20.34" height="20" as="geometry" />
        </mxCell>
        <mxCell id="zD_FLAQN2NRL1VXCUL-K-52" value="`F`" style="text;html=1;strokeColor=none;fillColor=none;align=center;verticalAlign=middle;whiteSpace=wrap;rounded=0;fontSize=16;" parent="zD_FLAQN2NRL1VXCUL-K-67" vertex="1">
          <mxGeometry x="260" y="137.14" width="20.34" height="20" as="geometry" />
        </mxCell>
        <mxCell id="zD_FLAQN2NRL1VXCUL-K-56" value="" style="endArrow=classicThin;startArrow=none;html=1;rounded=0;fontSize=12;startSize=8;endSize=8;curved=1;startFill=0;endFill=1;" parent="zD_FLAQN2NRL1VXCUL-K-67" edge="1">
          <mxGeometry width="50" height="50" relative="1" as="geometry">
            <mxPoint x="0.2400000000000091" y="100" as="sourcePoint" />
            <mxPoint x="80" y="100" as="targetPoint" />
          </mxGeometry>
        </mxCell>
        <mxCell id="zD_FLAQN2NRL1VXCUL-K-57" value="" style="endArrow=classicThin;startArrow=none;html=1;rounded=0;fontSize=12;startSize=8;endSize=8;curved=1;startFill=0;endFill=1;" parent="zD_FLAQN2NRL1VXCUL-K-67" edge="1">
          <mxGeometry width="50" height="50" relative="1" as="geometry">
            <mxPoint x="80" y="100" as="sourcePoint" />
            <mxPoint x="180" y="100" as="targetPoint" />
          </mxGeometry>
        </mxCell>
        <mxCell id="zD_FLAQN2NRL1VXCUL-K-58" value="m" style="text;html=1;strokeColor=none;fillColor=none;align=center;verticalAlign=middle;whiteSpace=wrap;rounded=0;fontSize=16;" parent="zD_FLAQN2NRL1VXCUL-K-67" vertex="1">
          <mxGeometry x="169.82999999999998" y="150" width="20.34" height="20" as="geometry" />
        </mxCell>
        <mxCell id="zD_FLAQN2NRL1VXCUL-K-59" value="`d_e`" style="text;html=1;strokeColor=none;fillColor=none;align=center;verticalAlign=middle;whiteSpace=wrap;rounded=0;fontSize=16;" parent="zD_FLAQN2NRL1VXCUL-K-67" vertex="1">
          <mxGeometry x="30" y="80" width="20.34" height="20" as="geometry" />
        </mxCell>
        <mxCell id="zD_FLAQN2NRL1VXCUL-K-60" value="`d_{em}`" style="text;html=1;strokeColor=none;fillColor=none;align=center;verticalAlign=middle;whiteSpace=wrap;rounded=0;fontSize=16;" parent="zD_FLAQN2NRL1VXCUL-K-67" vertex="1">
          <mxGeometry x="113" y="80" width="20.34" height="20" as="geometry" />
        </mxCell>
        <mxCell id="zD_FLAQN2NRL1VXCUL-K-61" value="" style="endArrow=classicThin;html=1;rounded=0;fontSize=12;startSize=8;endSize=8;curved=1;exitX=1.031;exitY=0.506;exitDx=0;exitDy=0;exitPerimeter=0;endFill=1;" parent="zD_FLAQN2NRL1VXCUL-K-67" edge="1">
          <mxGeometry width="50" height="50" relative="1" as="geometry">
            <mxPoint x="119.99999999999994" y="150" as="sourcePoint" />
            <mxPoint x="83.99999999999994" y="150" as="targetPoint" />
          </mxGeometry>
        </mxCell>
        <mxCell id="zD_FLAQN2NRL1VXCUL-K-62" value="`F_d`" style="text;html=1;strokeColor=none;fillColor=none;align=center;verticalAlign=middle;whiteSpace=wrap;rounded=0;fontSize=16;" parent="zD_FLAQN2NRL1VXCUL-K-67" vertex="1">
          <mxGeometry x="50.339999999999975" y="125" width="40" height="20" as="geometry" />
        </mxCell>
        <mxCell id="zD_FLAQN2NRL1VXCUL-K-63" value="" style="endArrow=classicThin;html=1;rounded=0;fontSize=12;startSize=8;endSize=8;curved=1;exitX=1.031;exitY=0.506;exitDx=0;exitDy=0;exitPerimeter=0;endFill=1;" parent="zD_FLAQN2NRL1VXCUL-K-67" edge="1">
          <mxGeometry width="50" height="50" relative="1" as="geometry">
            <mxPoint x="120.32999999999998" y="180" as="sourcePoint" />
            <mxPoint x="84.32999999999998" y="180" as="targetPoint" />
          </mxGeometry>
        </mxCell>
        <mxCell id="zD_FLAQN2NRL1VXCUL-K-64" value="`F_s`" style="text;html=1;strokeColor=none;fillColor=none;align=center;verticalAlign=middle;whiteSpace=wrap;rounded=0;fontSize=16;" parent="zD_FLAQN2NRL1VXCUL-K-67" vertex="1">
          <mxGeometry x="50.339999999999975" y="157.14" width="40" height="20" as="geometry" />
        </mxCell>
        <mxCell id="zD_FLAQN2NRL1VXCUL-K-65" value="&lt;font color=&quot;#ff0080&quot;&gt;equilibrium point&lt;/font&gt;" style="text;html=1;strokeColor=none;fillColor=none;align=center;verticalAlign=middle;whiteSpace=wrap;rounded=0;fontSize=16;" parent="zD_FLAQN2NRL1VXCUL-K-67" vertex="1">
          <mxGeometry x="50.34000000000003" width="60" height="30" as="geometry" />
        </mxCell>
        <mxCell id="zD_FLAQN2NRL1VXCUL-K-68" value="" style="group" parent="1" vertex="1" connectable="0">
          <mxGeometry x="279.9309082533132" y="240" width="320.0690917466868" height="163" as="geometry" />
        </mxCell>
        <mxCell id="zD_FLAQN2NRL1VXCUL-K-1" value="" style="rounded=0;whiteSpace=wrap;html=1;fontSize=16;fillColor=#000000;" parent="zD_FLAQN2NRL1VXCUL-K-68" vertex="1">
          <mxGeometry x="120.06909174668681" y="100" width="120" height="60" as="geometry" />
        </mxCell>
        <mxCell id="zD_FLAQN2NRL1VXCUL-K-2" value="" style="endArrow=none;html=1;rounded=0;fontSize=12;startSize=8;endSize=8;curved=1;" parent="zD_FLAQN2NRL1VXCUL-K-68" edge="1">
          <mxGeometry width="50" height="50" relative="1" as="geometry">
            <mxPoint x="0.06909174668680862" y="160" as="sourcePoint" />
            <mxPoint x="320.0690917466868" y="160" as="targetPoint" />
          </mxGeometry>
        </mxCell>
        <mxCell id="zD_FLAQN2NRL1VXCUL-K-3" value="" style="endArrow=none;html=1;rounded=0;fontSize=12;startSize=8;endSize=8;curved=1;" parent="zD_FLAQN2NRL1VXCUL-K-68" edge="1">
          <mxGeometry width="50" height="50" relative="1" as="geometry">
            <mxPoint x="0.06909174668680862" y="160" as="sourcePoint" />
            <mxPoint x="0.06909174668680862" as="targetPoint" />
          </mxGeometry>
        </mxCell>
        <mxCell id="zD_FLAQN2NRL1VXCUL-K-27" value="" style="endArrow=none;dashed=1;html=1;rounded=0;fontSize=12;startSize=8;endSize=8;curved=1;" parent="zD_FLAQN2NRL1VXCUL-K-68" edge="1">
          <mxGeometry width="50" height="50" relative="1" as="geometry">
            <mxPoint x="180.0690917466868" y="100" as="sourcePoint" />
            <mxPoint x="180.0690917466868" y="30" as="targetPoint" />
          </mxGeometry>
        </mxCell>
        <mxCell id="zD_FLAQN2NRL1VXCUL-K-28" value="" style="endArrow=classicThin;html=1;rounded=0;fontSize=12;startSize=8;endSize=8;curved=1;exitX=1.031;exitY=0.506;exitDx=0;exitDy=0;exitPerimeter=0;endFill=1;" parent="zD_FLAQN2NRL1VXCUL-K-68" source="zD_FLAQN2NRL1VXCUL-K-1" edge="1">
          <mxGeometry width="50" height="50" relative="1" as="geometry">
            <mxPoint x="140.0690917466868" y="160" as="sourcePoint" />
            <mxPoint x="280.0690917466868" y="130" as="targetPoint" />
          </mxGeometry>
        </mxCell>
        <mxCell id="zD_FLAQN2NRL1VXCUL-K-29" value="" style="endArrow=classicThin;startArrow=classicThin;html=1;rounded=0;fontSize=12;startSize=8;endSize=8;curved=1;startFill=1;endFill=1;" parent="zD_FLAQN2NRL1VXCUL-K-68" edge="1">
          <mxGeometry width="50" height="50" relative="1" as="geometry">
            <mxPoint x="0.06909174668680862" y="40" as="sourcePoint" />
            <mxPoint x="180.0690917466868" y="40" as="targetPoint" />
          </mxGeometry>
        </mxCell>
        <mxCell id="zD_FLAQN2NRL1VXCUL-K-31" value="d" style="text;html=1;strokeColor=none;fillColor=none;align=center;verticalAlign=middle;whiteSpace=wrap;rounded=0;fontSize=16;" parent="zD_FLAQN2NRL1VXCUL-K-68" vertex="1">
          <mxGeometry x="74.8290917466868" y="20" width="20.34" height="20" as="geometry" />
        </mxCell>
        <mxCell id="zD_FLAQN2NRL1VXCUL-K-32" value="F" style="text;html=1;strokeColor=none;fillColor=none;align=center;verticalAlign=middle;whiteSpace=wrap;rounded=0;fontSize=16;" parent="zD_FLAQN2NRL1VXCUL-K-68" vertex="1">
          <mxGeometry x="260.0690917466868" y="107.13999999999999" width="20.34" height="20" as="geometry" />
        </mxCell>
        <mxCell id="zD_FLAQN2NRL1VXCUL-K-53" value="" style="group" parent="zD_FLAQN2NRL1VXCUL-K-68" vertex="1" connectable="0">
          <mxGeometry y="86.22000000000003" width="120.39716950431665" height="31.80299129287016" as="geometry" />
        </mxCell>
        <mxCell id="zD_FLAQN2NRL1VXCUL-K-9" value="" style="shape=stencil(lVjZUhwxDPyafVXZki89E/IfVLGErRCggFx/H022PIzl3YZ926N7RtbZ8k6uXu9vnvc7Dq9vL0/f978Pt2/3O/myYz483u9fDm/2aSfXO7m6e3rZf3t5+vl4e/z+fLMgl08/nn4tT/hz5EWKvJA4/D3+kJhK/P/L1yP+4fC4wTOlMOClUZDz+ESqA56VGnh+oZJHfCGu5/GNch3xQtzO42Og6l4QqCGCeA/FRq0AQqY8ESQBQqUmnsDAp2ZxmN4QAyAwhTYS1neeJiQK6gk5A0KhEDwhAi/xmjYbQgBvkDDFwRwNMkmYxB1aMCFRdWeIxCBwslrcCY2qArxSLgO+wFqzUpTRoEQNPD9lSuLwzABv5o54oQDsyUxRPR48P2dq2eETwisV11yogdov0lNsc16EL5Saw2dQ+mWKF8ZXa47Z4QOogZp7X3g/bwH2V+sj0eEzyIcWexvZ+B/Et63mfi4fWiEdn8+wtzf1+WYOA/Yr91a+FiQVUI+aenp1fCAG9mgjrQ4fQBtV9fUYYZ82fB7rxToMyB/DN9fi7ADIQUo6BmzpuiCDYgi+Ty82IR+pj7H11QiK2AjVJVGjggnZdTlLa+xW14ZSgQNW14G9IVQwa4yQx8JM5iV0BhvY7g2BEih9I/hSS7A3avWh5oqTbyJE7drqkyZF/ugM7McZPMLkVYYSYQ6bSQAU5ikvAtQsc+IJCbJnyuwGx81cOtGy6MLqNBfhjuGzQnGiTi1GSh+6n+1hZhJuGF60ZCo4zK4LW3UimXM5YZoLRijIrdPgsTMwSKV5slnDEDSap9FphABMmmezdUm0t8zD3wgJqZdJXRhBQGrM8sUISG+e0EcmGEBFnxBgJolB0zuh8IxwmYTkXuVnNersJUTIXcNuIo3ahqlsdtmaqQIvmYxvzqQGZUOaNtQsUKiaT9L4htzgoW3TKWPXKAyls61ScQychVLwsuaW5oLHm8kW1+0tHRWkty2cLg6W8A1t2dNKWyvUVsvSHD0BXr5Ma7kRGG3ZfIKAIr0oYHeG0m9wzl5eFP8GAU1g2dqdSThbbWvnsYBagKlholnHwFnzRHdCrU/lFV9hay39347XADMp+wMo3sO4Z82Kx3kU/XjbCIkzhOheoH2knsQH32AW6QccFLzQ0wwvCkLPmI1DBT4/js+3AKPF0Lwx4i3lkIaZZFi1YQr8OT2/JJjSZv84B3OFi+HkH5sRqIpX3bsOhEoJx9dNnATlzqWXxh/j7cP7DfXd4eHheMG9/d/faNtPx9twuf4H);lineShape=1;strokeColor=#FF9933;fontSize=16;" parent="zD_FLAQN2NRL1VXCUL-K-53" vertex="1">
          <mxGeometry y="26.78680542125403" width="31.709857369178888" height="1.3928661388316261" as="geometry" />
        </mxCell>
        <mxCell id="zD_FLAQN2NRL1VXCUL-K-10" value="" style="shape=stencil(rVfJbhsxDP2auRKSSG3nNP2PAHFqo24cOO729+XU0NSkx89o0dtY5hO3x0UTP7xvn942Uwrvp+Ph8+b77vm0nfjDlNLudbs57k76NfHjxA8vh+Pm0/Hw9fX5/PvtaZacv74cvs03/DjjeqdYZlQKP88nQpl/H3w8y+93r1Y+BSMfI+UEAaVZQCUGGmIIFKyKxCRIRaPGFtDHyTqgUI8GwAVrEGrWJEnUMgAk77U06gUAAhXrQ5ZxxSqgVYoWUAIl4HTVKIkFdMr1NkD/7hZQyzByHRApVANoiQQ4zcqEbgGNKtAgZVi8ADox0KBBTMkANNA5AEAfbF4AiYJAp12UOlMDXFKANylTQT7Uwc0FoHED5MuBeraAO2HVNNk8zFULnOZE3Zp0UbWrCC3hlL2KCryOQtK8E6iC6uhbF1EqgN5M0eWtUAB5i8PcRV5GK7xxf3b3a5SBfKPk/A1UO7AnDyJf1EIGtNDOLtYirTbEVBY/GxRQgAbhwZoLkwLwIWvxBO90AEnLjYLLQhzcvVVtnkbKxAgBzc4GLc+Aqk1ddIAyrlgH8GhZF8xmAJB85UOHVNJpFqsHdESNctVi+hiR/wdwNdOb1hOqNh1m1gUdPqjpqQa2GmoYQ3s9SMH34bKU7DqgjZG/jGgebXA9b9FXqC4BCbBbxFNJOzOa6ToPndOcqYGtYTbAdnpdlQRp0E3K5uHOMqbDJ/7VvqeAYjXc2SgVUF2U4MqqTUbctjca4a36dOWWxgXr8sUvhxGuGNphXHWqQ2gP0ySLk09oECbPIjyaa/W8xvKN/aTF9sw7XfD+Ao5qg3ZrpMYTxF/brdsicb6024rtv5gP//BEuiOvH3/eYy+7/f78nLv837/f9Oj89uPHXw==);lineShape=1;strokeColor=#FF9933;fontSize=16;" parent="zD_FLAQN2NRL1VXCUL-K-53" vertex="1">
          <mxGeometry x="30.427575208749545" y="22.026791826427598" width="1.745802251612531" height="9.263675299548595" as="geometry" />
        </mxCell>
        <mxCell id="zD_FLAQN2NRL1VXCUL-K-11" value="" style="shape=stencil(lVhbUhtBDDyNf1XzfnwTcg+qgOAKwRSQ1+3TEzOLpfU28GeM2jOSWi1pdvHi+e7q8WYX3PPL0+H7ze/99cvdLn7ZhbB/uLt52r/g0y5e7uLF7eHp5tvT4efD9fHvx6thOT79OPwav/DniHPi4gAF9/f4RSsS6/9vvh7t7/cPyj44ZV+7eGLv569N+9LEu237uLJP1D5JTdo+SCX3KZL0/YuXFrftm8Sm7d088by/TkpWgNylsABFcfqEjDMLAeTp4AKoEjsBNCna55ylER+QtKRJkaN04gOy8HqBBeClewKoNqypiyMnRCdR+5CKZOJDjOKDBoBIDFDEeQ3wUhsBNOna6dhn3M5TFUwzgEqdxo27zkME3UlYUxNnTggS8zYAaXql2gJY+HsegAvosIYugbAVZPY608h9J2FFPRbtNGq2kiuVLF4nDnRsTAJQDzpKQ3XIlWqQoEUmBHHE6Zol67BCNxtJXG02rL7Poj0vS4iSvhKqPDFAkqDD6uuU8vMA1JeuOAhPIAXUIFs6D0PaiC61bvMA8ewkrB0FZJoPTUOPUrV9lEwKtGer3Y4SqUMBrL0jIe0olW7sC7t/l2yIKpnwFPZNs2jh4ZZ91zTtU2U3etvi30mKGevGCSvWMY0EoOqQIkas9YwY6SshyYXQFAArSHl+s5XlliwgkWIGIK8EKQYKMLU59IUDzNSG6mdTSYfmGn1JdOw5A3C09ayvVGaxftDnOKP2waB68URc1llzc876IC3cLNYt+2TEiyr8mthJEue1qZxGteVcbb5DolX1+zJnpg/KC5oU1ce1foX3AEYgRyvnrDA+jNrkxfxJQLYLBgBsPEfTMVMeKsEzH/zqSpWuYOibzehLowtAa3bpAaAxQJl95mTKY9U/pgu9k0Q/dXlzftEnYFKtBDAmJF0/mPDZijFmMDMLZ0rvMeWZK/FVGHNkNRJW50SzOamaKHXaesYsrKmBHYKpGKbtoEs0Bdp6xjxvTkD7JGHFxpDMmpSn8m/tJN6cUGivGr9nTuh0c0NMulmIPZ174rJrnu63JHEggjcbdJFEdhJwM2gfcqOj7dhvNVsL9wEaYfpPSZStb/1mAYCthBpoaFlzqbrJrs13Bl1AKKnGXzKarmkUbWKAVVhrnT1p6zWm6ihBeNhzUpsLwmKfqNqXlT1WEsZV6ZpI0OZMHIhWiMfSRIjn7dSD+3Rqb+KDblRZQGcbWOwT3SK9FeFe+FuVJM05NGxW+95OkRghWBV4qy0nc9PGe6dZOcfYRBxwNmHjQiQBq7rv/H3UrRxGQIn8OqtcnT+Drd6DQQhGuNXUCYI60j8+/978nj0+vD1u3+7v749v46f/t4/h+Or4kB4v/wE=);lineShape=1;strokeColor=#FF9933;fontSize=16;" parent="zD_FLAQN2NRL1VXCUL-K-53" vertex="1">
          <mxGeometry x="31.350180643062117" y="19.00142084625611" width="42.46748840932727" height="3.4948350130173367" as="geometry" />
        </mxCell>
        <mxCell id="zD_FLAQN2NRL1VXCUL-K-12" value="" style="shape=stencil(lVjbUhsxDP2avGpsy9dnSv+DGULJlBImpLe/r9yMl0i7e5a8hUXHF0lHOvKO796fH972u+Dez6fj9/3vw+P5ecdfdiEcXp/3p8NZfu34fsd3T8fT/tvp+PP18fL320O37L9+HH/1Ff5ccI4ad1Bwfy8fYiRO/798vdi/HF6v7APFquxTJB/W7Zma1/aVUlm3T1S0fXZU6rp9sevnQAWs7x2lrAGRIriwZ8r6xjlRigBQKBhAppCBS/3499UO0QNAGieeAEyVAaBRdRrgh9+WoyZB1YAkSyBApWziXMaXRUBk8s0mkkOAQkUfKTYqDWRSsDvERAx2SHnEdQK4secioKemJg8XYnAkSbWidxBHZ5BLuVI0OwRIt+Ipay9J7DM4Uol2hyChBNlaMrVkAQEkX2nkdXoLaRO4Q/WjAl0BUGpUpmh2SOTBkaow2HgpDL8tA4oFeOEDKEu1UdTJJ2XBg0g3ubTZQfgA4tACtaABko4IEG1dmgrVsn2ygZbcAk5tjZzOJEcO+FTsOZr1A4iy2Gd94Tjot2Zf2TrIows3akUDJNcBd7ybbjjlEW4mfQvDZw/bmwCKPpNU2g0vJdPQmRxoiAIIpuolqugO1SZelP6GATZwcQvAms9SiB0iTyVvvLRBnjp8MgVuKmufBEgBiDcdyQdilK6zS+fx4ZNeDbjAzMLmsP0sLxyUPfPEY2JQ5eeZXTfZaegcocJYYqeoHnwFUwCkeUZcwkyJ4XxrDfOw286LpLBzw02mCgs7kSa5HZAHta75j9wahxMnQBnNbhkgFct4qeLck+apW1ucsmWtPZspIPnR4VcFgE6NxCMyqxJDd0/Rtw0pBrYSQ/Qo3GEmk0Ryo7I6F2KyQwOX7lJvBkDDW4l2MElYuXW5qtNbxkMH7tAFsY6DiPC4IbkNgGEv6aLeABIcrrpPtNTLDVJUBhNTWQvDjttHH+3WUmHzkZYfNKdrGBPg6vhmABkK4j4gGkCDgQuzUimkTRtDrua0lAXE6S4fDSCPCfCTg3orkKLzp4CG61J/bNCB610VzUpjqPiQrFhEJ9tPPlrSynOM4Zv4qAFGh8GVqzBH4CI3JrspU8twwYq9ET1FyAZi5iiY9RmqJNE4+lmiTF9W7E0zzBmqtpnEyAEG2I1yeF3v4PlNr01Y2MrtTAF2YzZe86cudlJrIsgHWc105gTftiQfTGPm0VNW7Eu29hnmz23Pl9v28uPjrfTp8PJyeWq9/r99W5VPl3dZvv8H);lineShape=1;strokeColor=#FF9933;fontSize=16;" parent="zD_FLAQN2NRL1VXCUL-K-53" vertex="1">
          <mxGeometry x="31.09754758160625" y="30.03705217830168" width="42.047218890188105" height="1.7659391145684822" as="geometry" />
        </mxCell>
        <mxCell id="zD_FLAQN2NRL1VXCUL-K-13" value="" style="shape=stencil(7VjLctswDPwaXTEkwRfOafofmYlTe+raGcdpm78PVA0VE5I21x5yk20siccuAGvgu5f9w/NuCO7lejn/3P05PF73A38bQjic9rvL4apPA98PfPd0vux+XM6vp8fp8/PDaDk+/Tr/Hk/4O+FSoBJHVHBv0zfeUUj/vvk+AY6H0y2gUEkdIJOXbfscKdbOPlBF9pUC9w5RLNv2JVDuA3AUwfmlUEzG3rlt+xqIq7WPwL6Qt+dncL7M4X3EmzOwT+RdZ8/kgT9SqPb5jCTofKHUn1/IhW177+b8NYBQQAELcegD9sSgwhqBYZBniuiGSNn3AE1aBYD5vDmnHgJqJe4BMUJW10ilByRpPF+naW1VncugdQYAVp31AE20Ay6pbqvJksNS8JUk2CsKSJMW1hRCalPfenOh3HNVclPT+gWUjUM4SQuqVqEMcuRIen9qpuC37aOldmXYLMSWoDpK4HyvNesvUJ4IKJl6ZDKqACQ2DhSXNyCAtPNuYsggZlWKGSCaJJjUQiK2ChEBKhXjksAs6Q22hXGr5DpAZ1i2RGXgEmcqfQyqhASYrdQwdVCtVeCSaiEtAILEyZbcY8MAMWgbNvYF2utmYcQf4aage4fJqWtZ3rDnvuHp6GWU0oWYIxRnab1ttvfNw/WEqvr7AIpAFq0DUI93raLz7qXTHRCbC6U+5pQpATUrsY2ao6eClLCY5uNcAbRL0apZm5oHMXwtkF8L5H+/QGrzzRaQgZJromRcEhiDsij3rAgOtvdxbPdlU93AjTMubtDlBfTT4trPNwCU1pyIxQICoF52jWk3MSAtpMUgH8ciArBdRkZ1gqGWvI1Bt+IA6J30PCPPDOugHdXsFjonPBCc3mDWHR/gFjz+5++D/uw//+cvCfTh4xXD0+F4nN5Q3P5uX0noV9PrDL5/Bw==);lineShape=1;strokeColor=#FF9933;fontSize=16;" parent="zD_FLAQN2NRL1VXCUL-K-53" vertex="1">
          <mxGeometry x="52.56009996756427" y="22.385544068889658" width="2.1817444469041525" height="4.914185026254017" as="geometry" />
        </mxCell>
        <mxCell id="zD_FLAQN2NRL1VXCUL-K-14" value="" style="shape=stencil(lVlJchsxDHyNrijuyznLP1IVJ1bFsVOOs/0+zSiUh4DUkm7jMSESQKPR4Ozim+/3H77d7YL7/vL89OXu1/7jy/0uvt2FsH+8v3vev+BpF9/t4ptPT893n5+ffjx+PPz97cNYOZ6+Pv0cv/D7YBek+GEU3J/Di1IkxX9v3h/WP+wfN+u99L6sr1FiZetTWdZHL76dX5/EtWX92NGdX1/EuXU9P0+TmNb1RWIn5/fi1gBFJ4E44KP0qj0OxANfxXW9QyYGwekjwatGjoQk166drmyHLElF6ZiX0wZVmjJAlEga4KJfDXwRT/IQgwaSDxIJUGOSmlcDJzEQgzoPMA26NHaiPmO42cBlAm0c2BgUZpDFrVACGllxpqqxhyD9x8pJg+ykGYP/qT9tEI3TYcb5tEHRUIJBJ1DK3TgdZ42fZgAvxRwpkx0KsBx0WBsBKygxN2NAoFH65JQtWMt5gxomNDcGhexQswQV1kSPVJsmDfBOI4lrTocVJV0Zsx7zuqFiT7DU8iTSo0GmxNdQoSsHgHcc26FJWbE0+J9Ao6MelNNdEolSD7oecKRIKq6n2Z42TjMfepauqBUlynxoUqM2YC23d/HKIEkgTAmDvDo96JwkDgZ1zTTI88IOfc00mKowWeKcFgIF6LuwxVoQqCmmBLrh+1YmHs8ZxNVrJD/wHZQPyGVn2GiSVcvqUpjTzfS4IoH5cCSJo9OdqhkYKNqoFw3SWhCl8igZg5wm4q88EjpxY1EyTscLBiasKGrGlTZxo6gZbRhogFwdx5ICH4iJNWoL75ipqrQFlAqVMydqNAPfN9FA9ZfCpIimXcicobKOeYOByZDlQAvHhqJj/ARrvLcbmA4xvGK0YXoQWIDmAWLEMFlkO0AqrNjAm0R4Bp06rz40rsmgBZyCRuE7QG0ovveU+oaeWTUZdCBjYyimvNJG4dq4GrkO8ZtIHqrxAfKagc/qypwnfq9UrjBgYbXaGAasgKz6zpmG1er7fBS/V04QaBAsSnZGGQY3TUH5OKpdOWdlLjbsJAeDxkY/MysOr26aRnPlA3XXNQ329mQHDNQarY36MEZ2hSUuZ9CWFWsU0Ayb2d2UnRuVmNhNSNVNDoCnNyFZN5TS6fiKxq/ERo0US+P6Z800eITN7Bj01F0LqI3tgFFSzYpQuqymxyWZ6aKVUaW+hUMPK+yeQt86vgqo624RX5XE6ZiaAf9Vq5w0wLyz5gANjN2oGeWDEDD55jVvF0rb3tz7UHYJ+vKAO4voeLWc3a+g6akrXzocBnOjTCVenLPs5nqItfGoI4nTswE96gYYLrDcPO3R28KvGSWu5Z7SfHNmvcpV9pMlz6zXfaBNrJ4Jf1uzNeZmcp5bPxhcXo+H168Tn/YPD4ePG9v/668ZeHX4EhLf/QU=);lineShape=1;strokeColor=#FF9933;fontSize=16;" parent="zD_FLAQN2NRL1VXCUL-K-53" vertex="1">
          <mxGeometry x="54.87615991430084" y="24.363010462872808" width="37.46311501495453" height="1.2297456784325884" as="geometry" />
        </mxCell>
        <mxCell id="zD_FLAQN2NRL1VXCUL-K-15" value="" style="shape=stencil(lVbLbttADPwaXYldcp/nNP2PAHFqoY4dOG4ef1+qghyRqabpTV5zJJIzw+UgN8/7u6fdwOH5cj793L2O95f9IN8G5vG4353Hiz4NcjvIzcPpvPtxPv063s+/n+6myOnp8fQyveFtxvVGuU0oDu/zSazU0p+T7zPgMB5XgFapdAMQIenbgNqoRQPIQjkAQKFqv9AStQIAiUq2gE4V1FAaVZtSTxRADblTCRZQKdVtQGrE1QI6LFoy9egBvW0DWHxblcoGUopCLBZQliT/XjSxpaEzpbwdH3xCKpUmKN61qDE1ULFQZROvyooMCtaELGkqlAAK0IyqzahGKAthyrZFRVkGSk2ZQvSAEgEHZRHyKiVG0i6Usy+aQVerUIq+rQmkpPYsjmdVFvJz9jw0JQ7wMHXdziRVXgVKKkz9k7QTKDozsdWSmqcDplOgUOyYDHoEqubq5aqGRn2NypwzdMXM+cndBfotLu5aTckE/RkcbYny/8YDqSZPWqrUQUdjXz6/AKYRBRKS+GmmwntEZ7CbSNebaEsUYuMTRVRwoW4lwRRAfL72b4kPVJD32c8vLFH1WcwuPoILoXaKdtzpC0D/W/GjhaFAp/vFbQowHzV5s/1sFMCF8GHAa/4RTq6Vx68IrOlpnbIU/GOd+sL+pQ8f29vDeDjMy9/6f7/t6dG8Kcrtbw==);lineShape=1;strokeColor=#FF9933;fontSize=16;" parent="zD_FLAQN2NRL1VXCUL-K-53" vertex="1">
          <mxGeometry x="73.59591225058159" y="18.68417853849644" width="1.2362161860492051" height="3.0988198665644027" as="geometry" />
        </mxCell>
        <mxCell id="zD_FLAQN2NRL1VXCUL-K-16" value="" style="shape=stencil(lVbBchsxCP2avTISQhKc0/Q/MhOn3qlrZxy3Tf6+bHc0MVovzt7WMg8QevAY0sPb/ul1N2B4u5xPP3d/x+fLfkjfBsTxuN+dx4t+DelxSA8vp/Pux/n0+/g8/359miynr1+nP5OH9xknGbhOKAwf80lECPH/yfcZcBiP14ACKRoAqoviACpkMQAiyF4EhhoMIOsJrwNiCBAsohKksI5A7nO68nE7hgBlgxABJAcQAYsFVAhpHUDANiVJUJwyxf7OLJAc/4saMUHJnn+x+bB6cOwLVEukWlwixQScLABBHCIhAnUArTGuA1KEwhYQ3AgUWsWvUvIiEAN2Eaj1001A1kt3AIbiRMgFmOwzJAiyCVCBHWYvUxJs1F29tH1p8V96KqulnrZ4cSIsH06bTZwIS2oowIswkQ/77vQiKLu7biZ36i26R0Kj+xe7s7jMW3Z/hOyMIwLpJmR1H3kaX107a8m8cbEYkNqdxcloOYO1O9kZ85sBqjOxu4MvC5SBLOCO8lCBbIl6R9uoNtZ8UT212ZJ9uDv6rICeeRAd+xybKjV7FXhvvhCg9Z9awNv23JcIfRlJTZWafWjrwG17aX3yae8JuVJAygZ7Vb3c+/fy4dwPO/++qtq8pZ66FURbH/+9dMGL3Sx1+bB9IbwP0I/P/fNlPBzm9fX6/35f1aN5102P/wA=);lineShape=1;strokeColor=#FF9933;fontSize=16;" parent="zD_FLAQN2NRL1VXCUL-K-53" vertex="1">
          <mxGeometry x="72.07090865903376" y="26.343890691729143" width="1.8470903411427269" height="3.6315544185103286" as="geometry" />
        </mxCell>
        <mxCell id="zD_FLAQN2NRL1VXCUL-K-17" value="" style="shape=stencil(nVjZbttADPwavxJ7H89p+h8B4jRG0zhw0uvvO4Ig1Uta47pvtkRql+SQHHIX796fH972u+DeP07Hr/ufh8eP5138tAvh8Pq8Px0+8GsX73fx7ul42n85Hb+/Ps7/3x4myenXt+OP6Qu/Zj0voU1Kwf2eH0TJ84PPs/jL4fVMPEosg3iQHrbFs3g/iHvpcVu8SU6DuJPotsW9k+yVvGPyQapT8r4T+SyuKPlaiHyVmpR3XN2Wnz4XBvkkjrgH3m99kC8SmHyVOH6/SfIkuLhPHeS7dAaGtBy/hteLJxeKVYrXCp14NLnl9aoQJDOFJD4ZBYLQVCU5rcCCnOGkMQg+LmdeVrBXipJY0iBs5oRIcFqQB1ErOHJCiToRYHQjgStFIxUKgUCjdCljXUGkK8nNGiSO2EN2FwLWmnQcOk2GWsWPNldai2qXmFWyVRKE5nUxylKYPEAwQjstH7gsnyWM9wEomHzVIQNwScRal+zU9yvBUEfnUKnpJRKHdqTJaIBvUplCkqYwVGlq9ibBa4VMUhMKVZ3QKUo7MDaCDlHumSqUUSECFsxolNyxWqS1q2w0wbXprUD14ggycITya+V9Bwp5VAAYEwtEX9rAmptpyb6tQGSVzF0cj5zzWoFio+p064U2f7zuyujGsVGkjAlXcUmScVBIY6hLXp78o0IGweA2qCvFLonB1RgNysAag3UrKF5kJ7SlM50nNfNSk6J6VaOF0oIPlYwabeAdr7jVJFCKlGRcyNFcJPM7qTKAjtq41arQoCExam5LGSp64TmqiiWC33iodTl2nKD/hwZ6hKKsV+pAXCj5WR1gfRpe8SPCGw8dGmlSdWBtZJuderQadYDZYKkACF0gsbZcowRa8S2ZAcdspDRZtpQRB+IlS8dyu5HvTTz5JkaZM80Iy1lB3ZnRlhVDIZDAWd6dI+0pltlDgRU/OzvkW6eTSYF4yc4/UEjEBjthTUaTsdjOcLgkIzR2SsQJdHA1cyhOoGsPM+kCS7eN0lcKvp3VkQ9slr6wDHB0ILDbBhSBzNYlZp1RkiQSOLsvmQoZcatdyCClGHuwGx8oMIZvNkqQDywd9MIKJrOqZPZhSPHCmIBetyEGbAECZFctz4i0MyWs032Jk2RxTbqhW/rMKu8oSp3utmBKjd5f8aRYKMcw8qHTbm7uEwKdroy9vtBiZ/yJoZjNMSZehRYuA4dEB4Ybl7tXxfHj7x756fDyMq+hz9/rvTMezTvreP8H);lineShape=1;strokeColor=#FF9933;fontSize=16;" parent="zD_FLAQN2NRL1VXCUL-K-53" vertex="1">
          <mxGeometry x="90.35051757687643" y="24.6784884775592" width="30.046651927440205" height="1.3070700335602699" as="geometry" />
        </mxCell>
        <mxCell id="zD_FLAQN2NRL1VXCUL-K-24" value="&lt;font color=&quot;#ff9933&quot;&gt;Damper&amp;nbsp;&lt;/font&gt;" style="text;html=1;strokeColor=none;fillColor=none;align=center;verticalAlign=middle;whiteSpace=wrap;rounded=0;fontSize=16;" parent="zD_FLAQN2NRL1VXCUL-K-53" vertex="1">
          <mxGeometry x="23.649091746686793" width="60" height="14.78" as="geometry" />
        </mxCell>
        <mxCell id="zD_FLAQN2NRL1VXCUL-K-54" value="" style="group" parent="zD_FLAQN2NRL1VXCUL-K-68" vertex="1" connectable="0">
          <mxGeometry x="0.30601179158531977" y="128.50246369344597" width="120.10556854095222" height="34.497536306554025" as="geometry" />
        </mxCell>
        <mxCell id="zD_FLAQN2NRL1VXCUL-K-8" value="" style="shape=stencil(lZzZ0tzGDYWfRres3pdrJ3kPV1mOVXEsl+xsbx8gKo6GB5xv4jv5d4PD7sZycADwQ/3ut5++//Xjh5J++/3L5799/NenH37/6UP904dSPv3y08cvn363f32of/5Qv/vx85ePf/3y+R+//PD1v3/93lf6v/7++Z/+hH9/lUtHri5U0n++/mHXI+///eUvX9f//OmXy/oq6/NRcf0cl/VrHi2/Xp+Pcn3+qkcftL6v63r7xULrd7+sn/MY8P7lqO26vp1/ebF+Xt9n2vvM1+vrUcpl/ZhHqrR+XN9/8H21I83L+r6PAu/fjibr+9E7rV/X9+92Yun1+n7k6/PbPjXwxfqerusHvv84Ur6uL0cC/RlHu55ntfPB9WvperqveZTwPnSeZh1Nz6fi84ecv50PPn9dz3O004Ju168jXZ8/yzFAn9d5eo/169hwX+toYr/1aGC/W/Vn5dPDvFgv9uLvQ/4khQ20Y8MB5Xzq1+NE7cbIw5kLum5hmMnQK5XzBB933NiHVv2F1tEJ5a63XCfeQh6n0p8CdtAN1M4E9vWUzFM20Is81ZHaI8hR56WWbOfWwHJMYO+LgOkWXcM+H/e4t2PDLVjoS2LKx4Ln2/p+fb5dGhyprV/X9aa7CW7ZBOQO/BpJwFT76ixsCxNsIQpUwxcQDW4EOpqz7+F6aS3/wVdq8wxZLwXkGuoxCSGYwFVTLcRmggj5/N9PMRw1KZ8h9QlULD7WLk6soz07LBKYs45FeyiK0ywudBaYAnQWq3c9qrjJhpHZdFNCQ18n2LsX6AEbFXT1Di7EosfR6eKmChha2GRxFm4Fjhjgo1/Y6rntNyfdw1YA7FcJm67RzTCCr/l844cAh/RaNORm9homsK6/MDH42BmWq9PoiOFt/RSvhMZQH+H423p8ftMj3YiZfX3TKyC9iwKex7wREK2YqHcmsOWIKoIYF7ju2UyhU2IUMImBmEKvFFKL/ib16ucbP2FnyqVMoF/1aLz9Bbno0TEbqQber3uYGd2qCSi+HXwPQwOoJ8y0abOtq8DcZ0h9JRBT7ER7WGEP5unpF0xzrqph8ZDsoQVoZfdAYNJAxZA0KaFJW1Y3ry7AMDrlba2qxRku2fRK7Q75wClZbBKYYepIkNteIF+BjIN6cNxtHVm8Rj3T43uBEK3yI597JSCe3lMVcPVm8qKtlm5RvtqzRlzWbluvuscvFILbQLdn64cEw3pk0G0XuB5R4YzYBMQYPJGBazYBDW8F4Wfcs1lsBr0wgSS63c+XfHULW8wtn672lYCkk32in+xZMYBn6axIwsQ4k8cCPbi9yqpURfU6c23lTDiffiHTL9SQN5TTN98LNM2JzRNT0t3NBQ09JcJ6FpL1WB/o717A0jsBexPzbidEr/fg+guvZKFATNQ5SXilEdU7Iea2fLCLxTX0k5YarStusEyCoMwYyks6H0O859SLMwyKROlSsJQLxqux1R42YiXTtKqeFZnYHJIxDOkzlBYy8kNmKkIcJIwkM3h6c/Tghn29BM+EtIEJSNpjb4TccFEq046U/IUdkbDJFhmoWjND9HT6HCzBBCSUeBbAryR78AgPluBUikQGczmkF4aXBUwyEHNwKkzGxtgzA4iZTH3YpqtUnQqSXFFX7RGbjOeurkV1gxkLVQujm21xyLE2TEEt+In9mCeftIcHgfzM7NEpTd1DY+pjLvXb5uiJ77FUSvI9c/SFtHUrte8VHdj0Cspnjp4C7gr8p5MNcHEmIERd5izABISdYJ5uFU3sB1q0rRdNaohJVlWKeKFarFCztQ13FpAil4cSfiNx9YX5WxOYcsv7fMQrASF8a0VNXS04YvZ6JiCu3lASkSUmILme4zCwthU4KPPcVAswAcEwTviCX11dU+jOLLcJjIAlG53SOHm5ZwHa9FQs+e6VplZ9OmP6tQKAfhjUvcBWFPCmB2AbgJaQmxHT7wcJ9iRQ4JV2aNvoCZ3YrloLaBt1aT+KQg+BhQa0Q2fFN/rkXqBra45FH6KUdtdem8Yl0z3OiPwkQBDUBJS04sLynpoEtMY3HSglJ8rolZa6ylYw3dtb+RJTDWJwTEDQmLNSdA9bA6IJUEJpAiXoEnk+FxDVGFi5cgE5pY42vUNSbBdHFYS91ZHZxVEV1I81dMYQyDUB4a3am9aP0PvhtC7Zw1aQ681DrBorCKB6b3XGrt7U1ZBSqF935NLuJAZGiJuX4hL5zbYXZqI3B7uRlY1X50bK+qrKsTG036gfd7DcKPhCJvfGhDh7uDHSgcnxjRtoWPy9cTT17K/7f11ZQah74ywzJgPRHbuR/iH//U5gaT3KdIkSyx160npmVxYhVmbvOk/67wkxpTeBN7Qq4CuNsyv3WYBOqd+g70bq3U+C8UkAbzokBE430x6qVk871wX3g0B7Eli0h6K8iXe70illzaYt5SAScSdte+kTidm1w6YXVk/XCqWQhZv2hCD0K2EL6NRjHYmz0YArRz55jldpkxZb8tvETCrx3OznqV8LAnSsTaOoXRw2vtaQNlXsVPYkX8LuQotboSPKPB/xiKvqKdWJZQRnQq43XZmzX6HC5HUH+oWi5GmpWHw0AS3oDj6lUA/N+fTnrwQkijp/Rcea1abzZO4kazZaMif5KRxrZxMNXcs1M9saii3etkGs91KGyRsSSGAGdobj9BzaIWSOjFKO2RWGjobZ6Ax9VzOhM55VpxucpSbWu+ge7Biou2Y+ovKDe0znBMMrql8GIlZGCGdbFPiz2PM5sV9UgNKBsTUCrUc94pXAkC6njiFrBIbJi3+g3iPQ5N5iS7WBR8fhU1CkdMAEhLl3cELKl5R8NHeP5YrAkjn2JtVIocVusAHlm4YfyqhNoAXvTWHXBCSPM1dJqjFDbSAzDPUipwAs9gH5zJAemoHtNfGMJmb4bj1XRcpcdHVjkABXsQTkfdNyRNy/M+ZNhxBFxDEUaNghYem+h9I635pZo3iAurDhx9Ba5KOofdwg6goMMHniHsY7+kAM6rg8zPFsbmXR2auF+UwP1YRZMU3sTW96TiyVeQFUSnEJlc8E5KYXOyXPIiX8NOSYexiPWgw0erBQx+60hxRq2Y9elVcC2m/O0L4HT2wWQiVF71G4erGRMF75psXt9bNl9ZWA1u+YxTaBdv0F54re9LOJTU/uZ8vaM2ugFe0hKxwrbzcdJ56oqtNzcMZcv/NjFWdcuTcyqefzISxSjUDnZp6Y9WKDuPuKxHpbmq6XiZ7P61CSV/KQdguEQN1oD99a/Z+oUArTFg10CIvnbA1LKSu4sRzXAjIZzBW1pBXCyVlfjSh3YGNEXarengtQL/9S3nF1NFGz4Di+TyRfHSHbYDdjAuJmFiPEOtTzLS401ZAmTh7x/tYm/xDgkqIJCAa1wE5IwIdh4mwbbbqF8YKFdSMfSYrsLN10C+WNgXmlNyqFXiec2mqa6tpfyPO5gDgy7uStTXsjSkE2yn9BfOtEN+MCV9XYCFvNL0rRP/PnKWroRco8HF4DvsoNHV8NPZu2ZwqiNfTNljdeJmm/VnkzJhkqZZXrrmXpQGxdLDCDdjfcQxmhgSQjEPAGrWChFW66NGXgRuPB5FAOmYlndKse6+w83xomQ1ZBbTUBibpr8FBvmKsyb49jw2FWer2Z0b0D93hxoUHSkyyeu5eIZReHc8ahUb3vd18O0KawhjX/Esgow3SUArmATDJnHnIPAj6o/+aVhIxKPBUfBMxCiNZwges9uPMGZ+zfOhJXmTHZNaA9AhmFvRehgp/52wF5KcfnX7kAbTUB/fBGwm51n9K4vpJ/8oZ+IXQkehCj72J0HUtqHB8sQIn39hyHBOL89sbRqhza/wb3MHuJKDDS1IGVQ13XoDdpq4+0C0k+cbxlq6f0rknqT9F73gWjQxi63R3HVZYG9d2wLh0+NLT56yRT3bClJsh2q5rO/ebDRzIXMrlCNsLodkE8PMI0AvdpjdDGwpXTEabUEppl7ETumGL0YJQL6xlNE72ReQZbRwudNKZZ4fCRFG6irJohWRgn/FXDpD131xZtfV2Jo/4N70n6E6HUfPMhO3FAZl/8oTz1DzygHtgL7+WF5yedlts82p10VOZbz9+L9ULPe9sivr+EgKfGyBcCYmDe5ggOLint7L1vuGEJAJubJlMYTOeRzqQU8mb6NfCKe2DFM67nGe2kSMUUjpBK0nLKrshY/PEvV75bb//49pnMHz/9/PPXr2w+/3/9rKb96esnOeuf/ws=);lineShape=1;strokeColor=#FF9933;fontSize=16;" parent="zD_FLAQN2NRL1VXCUL-K-54" vertex="1">
          <mxGeometry width="120.10556854095223" height="11.261142906682304" as="geometry" />
        </mxCell>
        <mxCell id="zD_FLAQN2NRL1VXCUL-K-26" value="&lt;font color=&quot;#ff9933&quot;&gt;Spring&lt;/font&gt;" style="text;html=1;strokeColor=none;fillColor=none;align=center;verticalAlign=middle;whiteSpace=wrap;rounded=0;fontSize=16;" parent="zD_FLAQN2NRL1VXCUL-K-54" vertex="1">
          <mxGeometry x="23.343079955101473" y="4.497536306554025" width="60" height="30" as="geometry" />
        </mxCell>
      </root>
    </mxGraphModel>
  </diagram>
  <diagram id="DZZ1Szj8ClGa2RJWINcY" name="Page-2">
    <mxGraphModel dx="398" dy="238" grid="0" gridSize="10" guides="1" tooltips="1" connect="1" arrows="1" fold="1" page="1" pageScale="1" pageWidth="827" pageHeight="1169" background="#000000" math="1" shadow="0">
      <root>
        <mxCell id="0" />
        <mxCell id="1" parent="0" />
        <mxCell id="ueUbH-qyKybXFl0nGDGU-2" value="" style="rounded=0;whiteSpace=wrap;html=1;fontSize=16;fillColor=#000000;" parent="1" vertex="1">
          <mxGeometry x="400.07" y="323" width="120" height="60" as="geometry" />
        </mxCell>
        <mxCell id="ueUbH-qyKybXFl0nGDGU-3" value="" style="endArrow=none;html=1;rounded=0;fontSize=12;startSize=8;endSize=8;curved=1;" parent="1" edge="1">
          <mxGeometry width="50" height="50" relative="1" as="geometry">
            <mxPoint x="280" y="400" as="sourcePoint" />
            <mxPoint x="600" y="400" as="targetPoint" />
          </mxGeometry>
        </mxCell>
        <mxCell id="ueUbH-qyKybXFl0nGDGU-4" value="" style="endArrow=none;html=1;rounded=0;fontSize=12;startSize=8;endSize=8;curved=1;" parent="1" edge="1">
          <mxGeometry width="50" height="50" relative="1" as="geometry">
            <mxPoint x="280" y="400" as="sourcePoint" />
            <mxPoint x="280" y="240" as="targetPoint" />
          </mxGeometry>
        </mxCell>
        <mxCell id="ueUbH-qyKybXFl0nGDGU-5" value="" style="endArrow=none;dashed=1;html=1;rounded=0;fontSize=12;startSize=8;endSize=8;curved=1;" parent="1" edge="1">
          <mxGeometry width="50" height="50" relative="1" as="geometry">
            <mxPoint x="460.07" y="323" as="sourcePoint" />
            <mxPoint x="460.07" y="253" as="targetPoint" />
          </mxGeometry>
        </mxCell>
        <mxCell id="ueUbH-qyKybXFl0nGDGU-6" value="" style="endArrow=classicThin;html=1;rounded=0;fontSize=12;startSize=8;endSize=8;curved=1;exitX=1.031;exitY=0.506;exitDx=0;exitDy=0;exitPerimeter=0;endFill=1;" parent="1" source="ueUbH-qyKybXFl0nGDGU-2" edge="1">
          <mxGeometry width="50" height="50" relative="1" as="geometry">
            <mxPoint x="420.07" y="383" as="sourcePoint" />
            <mxPoint x="560.07" y="353" as="targetPoint" />
          </mxGeometry>
        </mxCell>
        <mxCell id="ueUbH-qyKybXFl0nGDGU-7" value="" style="endArrow=classicThin;startArrow=classicThin;html=1;rounded=0;fontSize=12;startSize=8;endSize=8;curved=1;startFill=1;endFill=1;" parent="1" edge="1">
          <mxGeometry width="50" height="50" relative="1" as="geometry">
            <mxPoint x="280.07" y="263" as="sourcePoint" />
            <mxPoint x="460.07" y="263" as="targetPoint" />
          </mxGeometry>
        </mxCell>
        <mxCell id="ueUbH-qyKybXFl0nGDGU-8" value="d" style="text;html=1;strokeColor=none;fillColor=none;align=center;verticalAlign=middle;whiteSpace=wrap;rounded=0;fontSize=16;" parent="1" vertex="1">
          <mxGeometry x="354.83" y="243" width="20.34" height="20" as="geometry" />
        </mxCell>
        <mxCell id="ueUbH-qyKybXFl0nGDGU-9" value="F" style="text;html=1;strokeColor=none;fillColor=none;align=center;verticalAlign=middle;whiteSpace=wrap;rounded=0;fontSize=16;" parent="1" vertex="1">
          <mxGeometry x="530" y="329" width="20.34" height="20" as="geometry" />
        </mxCell>
        <mxCell id="ueUbH-qyKybXFl0nGDGU-10" value="" style="group" parent="1" vertex="1" connectable="0">
          <mxGeometry x="280.0009082533132" y="309.22" width="120.39716950431665" height="31.80299129287016" as="geometry" />
        </mxCell>
        <mxCell id="ueUbH-qyKybXFl0nGDGU-11" value="" style="shape=stencil(lVjZUhwxDPyafVXZki89E/IfVLGErRCggFx/H022PIzl3YZ926N7RtbZ8k6uXu9vnvc7Dq9vL0/f978Pt2/3O/myYz483u9fDm/2aSfXO7m6e3rZf3t5+vl4e/z+fLMgl08/nn4tT/hz5EWKvJA4/D3+kJhK/P/L1yP+4fC4wTOlMOClUZDz+ESqA56VGnh+oZJHfCGu5/GNch3xQtzO42Og6l4QqCGCeA/FRq0AQqY8ESQBQqUmnsDAp2ZxmN4QAyAwhTYS1neeJiQK6gk5A0KhEDwhAi/xmjYbQgBvkDDFwRwNMkmYxB1aMCFRdWeIxCBwslrcCY2qArxSLgO+wFqzUpTRoEQNPD9lSuLwzABv5o54oQDsyUxRPR48P2dq2eETwisV11yogdov0lNsc16EL5Saw2dQ+mWKF8ZXa47Z4QOogZp7X3g/bwH2V+sj0eEzyIcWexvZ+B/Et63mfi4fWiEdn8+wtzf1+WYOA/Yr91a+FiQVUI+aenp1fCAG9mgjrQ4fQBtV9fUYYZ82fB7rxToMyB/DN9fi7ADIQUo6BmzpuiCDYgi+Ty82IR+pj7H11QiK2AjVJVGjggnZdTlLa+xW14ZSgQNW14G9IVQwa4yQx8JM5iV0BhvY7g2BEih9I/hSS7A3avWh5oqTbyJE7drqkyZF/ugM7McZPMLkVYYSYQ6bSQAU5ikvAtQsc+IJCbJnyuwGx81cOtGy6MLqNBfhjuGzQnGiTi1GSh+6n+1hZhJuGF60ZCo4zK4LW3UimXM5YZoLRijIrdPgsTMwSKV5slnDEDSap9FphABMmmezdUm0t8zD3wgJqZdJXRhBQGrM8sUISG+e0EcmGEBFnxBgJolB0zuh8IxwmYTkXuVnNersJUTIXcNuIo3ahqlsdtmaqQIvmYxvzqQGZUOaNtQsUKiaT9L4htzgoW3TKWPXKAyls61ScQychVLwsuaW5oLHm8kW1+0tHRWkty2cLg6W8A1t2dNKWyvUVsvSHD0BXr5Ma7kRGG3ZfIKAIr0oYHeG0m9wzl5eFP8GAU1g2dqdSThbbWvnsYBagKlholnHwFnzRHdCrU/lFV9hay39347XADMp+wMo3sO4Z82Kx3kU/XjbCIkzhOheoH2knsQH32AW6QccFLzQ0wwvCkLPmI1DBT4/js+3AKPF0Lwx4i3lkIaZZFi1YQr8OT2/JJjSZv84B3OFi+HkH5sRqIpX3bsOhEoJx9dNnATlzqWXxh/j7cP7DfXd4eHheMG9/d/faNtPx9twuf4H);lineShape=1;strokeColor=#FF9933;fontSize=16;" parent="ueUbH-qyKybXFl0nGDGU-10" vertex="1">
          <mxGeometry y="26.78680542125403" width="31.709857369178888" height="1.3928661388316261" as="geometry" />
        </mxCell>
        <mxCell id="ueUbH-qyKybXFl0nGDGU-12" value="" style="shape=stencil(rVfJbhsxDP2auRKSSG3nNP2PAHFqo24cOO729+XU0NSkx89o0dtY5hO3x0UTP7xvn942Uwrvp+Ph8+b77vm0nfjDlNLudbs57k76NfHjxA8vh+Pm0/Hw9fX5/PvtaZacv74cvs03/DjjeqdYZlQKP88nQpl/H3w8y+93r1Y+BSMfI+UEAaVZQCUGGmIIFKyKxCRIRaPGFtDHyTqgUI8GwAVrEGrWJEnUMgAk77U06gUAAhXrQ5ZxxSqgVYoWUAIl4HTVKIkFdMr1NkD/7hZQyzByHRApVANoiQQ4zcqEbgGNKtAgZVi8ADox0KBBTMkANNA5AEAfbF4AiYJAp12UOlMDXFKANylTQT7Uwc0FoHED5MuBeraAO2HVNNk8zFULnOZE3Zp0UbWrCC3hlL2KCryOQtK8E6iC6uhbF1EqgN5M0eWtUAB5i8PcRV5GK7xxf3b3a5SBfKPk/A1UO7AnDyJf1EIGtNDOLtYirTbEVBY/GxRQgAbhwZoLkwLwIWvxBO90AEnLjYLLQhzcvVVtnkbKxAgBzc4GLc+Aqk1ddIAyrlgH8GhZF8xmAJB85UOHVNJpFqsHdESNctVi+hiR/wdwNdOb1hOqNh1m1gUdPqjpqQa2GmoYQ3s9SMH34bKU7DqgjZG/jGgebXA9b9FXqC4BCbBbxFNJOzOa6ToPndOcqYGtYTbAdnpdlQRp0E3K5uHOMqbDJ/7VvqeAYjXc2SgVUF2U4MqqTUbctjca4a36dOWWxgXr8sUvhxGuGNphXHWqQ2gP0ySLk09oECbPIjyaa/W8xvKN/aTF9sw7XfD+Ao5qg3ZrpMYTxF/brdsicb6024rtv5gP//BEuiOvH3/eYy+7/f78nLv837/f9Oj89uPHXw==);lineShape=1;strokeColor=#FF9933;fontSize=16;" parent="ueUbH-qyKybXFl0nGDGU-10" vertex="1">
          <mxGeometry x="30.427575208749545" y="22.026791826427598" width="1.745802251612531" height="9.263675299548595" as="geometry" />
        </mxCell>
        <mxCell id="ueUbH-qyKybXFl0nGDGU-13" value="" style="shape=stencil(lVhbUhtBDDyNf1XzfnwTcg+qgOAKwRSQ1+3TEzOLpfU28GeM2jOSWi1pdvHi+e7q8WYX3PPL0+H7ze/99cvdLn7ZhbB/uLt52r/g0y5e7uLF7eHp5tvT4efD9fHvx6thOT79OPwav/DniHPi4gAF9/f4RSsS6/9vvh7t7/cPyj44ZV+7eGLv569N+9LEu237uLJP1D5JTdo+SCX3KZL0/YuXFrftm8Sm7d088by/TkpWgNylsABFcfqEjDMLAeTp4AKoEjsBNCna55ylER+QtKRJkaN04gOy8HqBBeClewKoNqypiyMnRCdR+5CKZOJDjOKDBoBIDFDEeQ3wUhsBNOna6dhn3M5TFUwzgEqdxo27zkME3UlYUxNnTggS8zYAaXql2gJY+HsegAvosIYugbAVZPY608h9J2FFPRbtNGq2kiuVLF4nDnRsTAJQDzpKQ3XIlWqQoEUmBHHE6Zol67BCNxtJXG02rL7Poj0vS4iSvhKqPDFAkqDD6uuU8vMA1JeuOAhPIAXUIFs6D0PaiC61bvMA8ewkrB0FZJoPTUOPUrV9lEwKtGer3Y4SqUMBrL0jIe0olW7sC7t/l2yIKpnwFPZNs2jh4ZZ91zTtU2U3etvi30mKGevGCSvWMY0EoOqQIkas9YwY6SshyYXQFAArSHl+s5XlliwgkWIGIK8EKQYKMLU59IUDzNSG6mdTSYfmGn1JdOw5A3C09ayvVGaxftDnOKP2waB68URc1llzc876IC3cLNYt+2TEiyr8mthJEue1qZxGteVcbb5DolX1+zJnpg/KC5oU1ce1foX3AEYgRyvnrDA+jNrkxfxJQLYLBgBsPEfTMVMeKsEzH/zqSpWuYOibzehLowtAa3bpAaAxQJl95mTKY9U/pgu9k0Q/dXlzftEnYFKtBDAmJF0/mPDZijFmMDMLZ0rvMeWZK/FVGHNkNRJW50SzOamaKHXaesYsrKmBHYKpGKbtoEs0Bdp6xjxvTkD7JGHFxpDMmpSn8m/tJN6cUGivGr9nTuh0c0NMulmIPZ174rJrnu63JHEggjcbdJFEdhJwM2gfcqOj7dhvNVsL9wEaYfpPSZStb/1mAYCthBpoaFlzqbrJrs13Bl1AKKnGXzKarmkUbWKAVVhrnT1p6zWm6ihBeNhzUpsLwmKfqNqXlT1WEsZV6ZpI0OZMHIhWiMfSRIjn7dSD+3Rqb+KDblRZQGcbWOwT3SK9FeFe+FuVJM05NGxW+95OkRghWBV4qy0nc9PGe6dZOcfYRBxwNmHjQiQBq7rv/H3UrRxGQIn8OqtcnT+Drd6DQQhGuNXUCYI60j8+/978nj0+vD1u3+7v749v46f/t4/h+Or4kB4v/wE=);lineShape=1;strokeColor=#FF9933;fontSize=16;" parent="ueUbH-qyKybXFl0nGDGU-10" vertex="1">
          <mxGeometry x="31.350180643062117" y="19.00142084625611" width="42.46748840932727" height="3.4948350130173367" as="geometry" />
        </mxCell>
        <mxCell id="ueUbH-qyKybXFl0nGDGU-14" value="" style="shape=stencil(lVjbUhsxDP2avGpsy9dnSv+DGULJlBImpLe/r9yMl0i7e5a8hUXHF0lHOvKO796fH972u+Dez6fj9/3vw+P5ecdfdiEcXp/3p8NZfu34fsd3T8fT/tvp+PP18fL320O37L9+HH/1Ff5ccI4ad1Bwfy8fYiRO/798vdi/HF6v7APFquxTJB/W7Zma1/aVUlm3T1S0fXZU6rp9sevnQAWs7x2lrAGRIriwZ8r6xjlRigBQKBhAppCBS/3499UO0QNAGieeAEyVAaBRdRrgh9+WoyZB1YAkSyBApWziXMaXRUBk8s0mkkOAQkUfKTYqDWRSsDvERAx2SHnEdQK4secioKemJg8XYnAkSbWidxBHZ5BLuVI0OwRIt+Ipay9J7DM4Uol2hyChBNlaMrVkAQEkX2nkdXoLaRO4Q/WjAl0BUGpUpmh2SOTBkaow2HgpDL8tA4oFeOEDKEu1UdTJJ2XBg0g3ubTZQfgA4tACtaABko4IEG1dmgrVsn2ygZbcAk5tjZzOJEcO+FTsOZr1A4iy2Gd94Tjot2Zf2TrIows3akUDJNcBd7ybbjjlEW4mfQvDZw/bmwCKPpNU2g0vJdPQmRxoiAIIpuolqugO1SZelP6GATZwcQvAms9SiB0iTyVvvLRBnjp8MgVuKmufBEgBiDcdyQdilK6zS+fx4ZNeDbjAzMLmsP0sLxyUPfPEY2JQ5eeZXTfZaegcocJYYqeoHnwFUwCkeUZcwkyJ4XxrDfOw286LpLBzw02mCgs7kSa5HZAHta75j9wahxMnQBnNbhkgFct4qeLck+apW1ucsmWtPZspIPnR4VcFgE6NxCMyqxJDd0/Rtw0pBrYSQ/Qo3GEmk0Ryo7I6F2KyQwOX7lJvBkDDW4l2MElYuXW5qtNbxkMH7tAFsY6DiPC4IbkNgGEv6aLeABIcrrpPtNTLDVJUBhNTWQvDjttHH+3WUmHzkZYfNKdrGBPg6vhmABkK4j4gGkCDgQuzUimkTRtDrua0lAXE6S4fDSCPCfCTg3orkKLzp4CG61J/bNCB610VzUpjqPiQrFhEJ9tPPlrSynOM4Zv4qAFGh8GVqzBH4CI3JrspU8twwYq9ET1FyAZi5iiY9RmqJNE4+lmiTF9W7E0zzBmqtpnEyAEG2I1yeF3v4PlNr01Y2MrtTAF2YzZe86cudlJrIsgHWc105gTftiQfTGPm0VNW7Eu29hnmz23Pl9v28uPjrfTp8PJyeWq9/r99W5VPl3dZvv8H);lineShape=1;strokeColor=#FF9933;fontSize=16;" parent="ueUbH-qyKybXFl0nGDGU-10" vertex="1">
          <mxGeometry x="31.09754758160625" y="30.03705217830168" width="42.047218890188105" height="1.7659391145684822" as="geometry" />
        </mxCell>
        <mxCell id="ueUbH-qyKybXFl0nGDGU-15" value="" style="shape=stencil(7VjLctswDPwaXTEkwRfOafofmYlTe+raGcdpm78PVA0VE5I21x5yk20siccuAGvgu5f9w/NuCO7lejn/3P05PF73A38bQjic9rvL4apPA98PfPd0vux+XM6vp8fp8/PDaDk+/Tr/Hk/4O+FSoBJHVHBv0zfeUUj/vvk+AY6H0y2gUEkdIJOXbfscKdbOPlBF9pUC9w5RLNv2JVDuA3AUwfmlUEzG3rlt+xqIq7WPwL6Qt+dncL7M4X3EmzOwT+RdZ8/kgT9SqPb5jCTofKHUn1/IhW177+b8NYBQQAELcegD9sSgwhqBYZBniuiGSNn3AE1aBYD5vDmnHgJqJe4BMUJW10ilByRpPF+naW1VncugdQYAVp31AE20Ay6pbqvJksNS8JUk2CsKSJMW1hRCalPfenOh3HNVclPT+gWUjUM4SQuqVqEMcuRIen9qpuC37aOldmXYLMSWoDpK4HyvNesvUJ4IKJl6ZDKqACQ2DhSXNyCAtPNuYsggZlWKGSCaJJjUQiK2ChEBKhXjksAs6Q22hXGr5DpAZ1i2RGXgEmcqfQyqhASYrdQwdVCtVeCSaiEtAILEyZbcY8MAMWgbNvYF2utmYcQf4aage4fJqWtZ3rDnvuHp6GWU0oWYIxRnab1ttvfNw/WEqvr7AIpAFq0DUI93raLz7qXTHRCbC6U+5pQpATUrsY2ao6eClLCY5uNcAbRL0apZm5oHMXwtkF8L5H+/QGrzzRaQgZJromRcEhiDsij3rAgOtvdxbPdlU93AjTMubtDlBfTT4trPNwCU1pyIxQICoF52jWk3MSAtpMUgH8ciArBdRkZ1gqGWvI1Bt+IA6J30PCPPDOugHdXsFjonPBCc3mDWHR/gFjz+5++D/uw//+cvCfTh4xXD0+F4nN5Q3P5uX0noV9PrDL5/Bw==);lineShape=1;strokeColor=#FF9933;fontSize=16;" parent="ueUbH-qyKybXFl0nGDGU-10" vertex="1">
          <mxGeometry x="52.56009996756427" y="22.385544068889658" width="2.1817444469041525" height="4.914185026254017" as="geometry" />
        </mxCell>
        <mxCell id="ueUbH-qyKybXFl0nGDGU-16" value="" style="shape=stencil(lVlJchsxDHyNrijuyznLP1IVJ1bFsVOOs/0+zSiUh4DUkm7jMSESQKPR4Ozim+/3H77d7YL7/vL89OXu1/7jy/0uvt2FsH+8v3vev+BpF9/t4ptPT893n5+ffjx+PPz97cNYOZ6+Pv0cv/D7YBek+GEU3J/Di1IkxX9v3h/WP+wfN+u99L6sr1FiZetTWdZHL76dX5/EtWX92NGdX1/EuXU9P0+TmNb1RWIn5/fi1gBFJ4E44KP0qj0OxANfxXW9QyYGwekjwatGjoQk166drmyHLElF6ZiX0wZVmjJAlEga4KJfDXwRT/IQgwaSDxIJUGOSmlcDJzEQgzoPMA26NHaiPmO42cBlAm0c2BgUZpDFrVACGllxpqqxhyD9x8pJg+ykGYP/qT9tEI3TYcb5tEHRUIJBJ1DK3TgdZ42fZgAvxRwpkx0KsBx0WBsBKygxN2NAoFH65JQtWMt5gxomNDcGhexQswQV1kSPVJsmDfBOI4lrTocVJV0Zsx7zuqFiT7DU8iTSo0GmxNdQoSsHgHcc26FJWbE0+J9Ao6MelNNdEolSD7oecKRIKq6n2Z42TjMfepauqBUlynxoUqM2YC23d/HKIEkgTAmDvDo96JwkDgZ1zTTI88IOfc00mKowWeKcFgIF6LuwxVoQqCmmBLrh+1YmHs8ZxNVrJD/wHZQPyGVn2GiSVcvqUpjTzfS4IoH5cCSJo9OdqhkYKNqoFw3SWhCl8igZg5wm4q88EjpxY1EyTscLBiasKGrGlTZxo6gZbRhogFwdx5ICH4iJNWoL75ipqrQFlAqVMydqNAPfN9FA9ZfCpIimXcicobKOeYOByZDlQAvHhqJj/ARrvLcbmA4xvGK0YXoQWIDmAWLEMFlkO0AqrNjAm0R4Bp06rz40rsmgBZyCRuE7QG0ovveU+oaeWTUZdCBjYyimvNJG4dq4GrkO8ZtIHqrxAfKagc/qypwnfq9UrjBgYbXaGAasgKz6zpmG1er7fBS/V04QaBAsSnZGGQY3TUH5OKpdOWdlLjbsJAeDxkY/MysOr26aRnPlA3XXNQ329mQHDNQarY36MEZ2hSUuZ9CWFWsU0Ayb2d2UnRuVmNhNSNVNDoCnNyFZN5TS6fiKxq/ERo0US+P6Z800eITN7Bj01F0LqI3tgFFSzYpQuqymxyWZ6aKVUaW+hUMPK+yeQt86vgqo624RX5XE6ZiaAf9Vq5w0wLyz5gANjN2oGeWDEDD55jVvF0rb3tz7UHYJ+vKAO4voeLWc3a+g6akrXzocBnOjTCVenLPs5nqItfGoI4nTswE96gYYLrDcPO3R28KvGSWu5Z7SfHNmvcpV9pMlz6zXfaBNrJ4Jf1uzNeZmcp5bPxhcXo+H168Tn/YPD4ePG9v/668ZeHX4EhLf/QU=);lineShape=1;strokeColor=#FF9933;fontSize=16;" parent="ueUbH-qyKybXFl0nGDGU-10" vertex="1">
          <mxGeometry x="54.87615991430084" y="24.363010462872808" width="37.46311501495453" height="1.2297456784325884" as="geometry" />
        </mxCell>
        <mxCell id="ueUbH-qyKybXFl0nGDGU-17" value="" style="shape=stencil(lVbLbttADPwaXYldcp/nNP2PAHFqoY4dOG4ef1+qghyRqabpTV5zJJIzw+UgN8/7u6fdwOH5cj793L2O95f9IN8G5vG4353Hiz4NcjvIzcPpvPtxPv063s+/n+6myOnp8fQyveFtxvVGuU0oDu/zSazU0p+T7zPgMB5XgFapdAMQIenbgNqoRQPIQjkAQKFqv9AStQIAiUq2gE4V1FAaVZtSTxRADblTCRZQKdVtQGrE1QI6LFoy9egBvW0DWHxblcoGUopCLBZQliT/XjSxpaEzpbwdH3xCKpUmKN61qDE1ULFQZROvyooMCtaELGkqlAAK0IyqzahGKAthyrZFRVkGSk2ZQvSAEgEHZRHyKiVG0i6Usy+aQVerUIq+rQmkpPYsjmdVFvJz9jw0JQ7wMHXdziRVXgVKKkz9k7QTKDozsdWSmqcDplOgUOyYDHoEqubq5aqGRn2NypwzdMXM+cndBfotLu5aTckE/RkcbYny/8YDqSZPWqrUQUdjXz6/AKYRBRKS+GmmwntEZ7CbSNebaEsUYuMTRVRwoW4lwRRAfL72b4kPVJD32c8vLFH1WcwuPoILoXaKdtzpC0D/W/GjhaFAp/vFbQowHzV5s/1sFMCF8GHAa/4RTq6Vx68IrOlpnbIU/GOd+sL+pQ8f29vDeDjMy9/6f7/t6dG8Kcrtbw==);lineShape=1;strokeColor=#FF9933;fontSize=16;" parent="ueUbH-qyKybXFl0nGDGU-10" vertex="1">
          <mxGeometry x="73.59591225058159" y="18.68417853849644" width="1.2362161860492051" height="3.0988198665644027" as="geometry" />
        </mxCell>
        <mxCell id="ueUbH-qyKybXFl0nGDGU-18" value="" style="shape=stencil(lVbBchsxCP2avTISQhKc0/Q/MhOn3qlrZxy3Tf6+bHc0MVovzt7WMg8QevAY0sPb/ul1N2B4u5xPP3d/x+fLfkjfBsTxuN+dx4t+DelxSA8vp/Pux/n0+/g8/359miynr1+nP5OH9xknGbhOKAwf80lECPH/yfcZcBiP14ACKRoAqoviACpkMQAiyF4EhhoMIOsJrwNiCBAsohKksI5A7nO68nE7hgBlgxABJAcQAYsFVAhpHUDANiVJUJwyxf7OLJAc/4saMUHJnn+x+bB6cOwLVEukWlwixQScLABBHCIhAnUArTGuA1KEwhYQ3AgUWsWvUvIiEAN2Eaj1001A1kt3AIbiRMgFmOwzJAiyCVCBHWYvUxJs1F29tH1p8V96KqulnrZ4cSIsH06bTZwIS2oowIswkQ/77vQiKLu7biZ36i26R0Kj+xe7s7jMW3Z/hOyMIwLpJmR1H3kaX107a8m8cbEYkNqdxcloOYO1O9kZ85sBqjOxu4MvC5SBLOCO8lCBbIl6R9uoNtZ8UT212ZJ9uDv6rICeeRAd+xybKjV7FXhvvhCg9Z9awNv23JcIfRlJTZWafWjrwG17aX3yae8JuVJAygZ7Vb3c+/fy4dwPO/++qtq8pZ66FURbH/+9dMGL3Sx1+bB9IbwP0I/P/fNlPBzm9fX6/35f1aN5102P/wA=);lineShape=1;strokeColor=#FF9933;fontSize=16;" parent="ueUbH-qyKybXFl0nGDGU-10" vertex="1">
          <mxGeometry x="72.07090865903376" y="26.343890691729143" width="1.8470903411427269" height="3.6315544185103286" as="geometry" />
        </mxCell>
        <mxCell id="ueUbH-qyKybXFl0nGDGU-19" value="" style="shape=stencil(nVjZbttADPwavxJ7H89p+h8B4jRG0zhw0uvvO4Ig1Uta47pvtkRql+SQHHIX796fH972u+DeP07Hr/ufh8eP5138tAvh8Pq8Px0+8GsX73fx7ul42n85Hb+/Ps7/3x4myenXt+OP6Qu/Zj0voU1Kwf2eH0TJ84PPs/jL4fVMPEosg3iQHrbFs3g/iHvpcVu8SU6DuJPotsW9k+yVvGPyQapT8r4T+SyuKPlaiHyVmpR3XN2Wnz4XBvkkjrgH3m99kC8SmHyVOH6/SfIkuLhPHeS7dAaGtBy/hteLJxeKVYrXCp14NLnl9aoQJDOFJD4ZBYLQVCU5rcCCnOGkMQg+LmdeVrBXipJY0iBs5oRIcFqQB1ErOHJCiToRYHQjgStFIxUKgUCjdCljXUGkK8nNGiSO2EN2FwLWmnQcOk2GWsWPNldai2qXmFWyVRKE5nUxylKYPEAwQjstH7gsnyWM9wEomHzVIQNwScRal+zU9yvBUEfnUKnpJRKHdqTJaIBvUplCkqYwVGlq9ibBa4VMUhMKVZ3QKUo7MDaCDlHumSqUUSECFsxolNyxWqS1q2w0wbXprUD14ggycITya+V9Bwp5VAAYEwtEX9rAmptpyb6tQGSVzF0cj5zzWoFio+p064U2f7zuyujGsVGkjAlXcUmScVBIY6hLXp78o0IGweA2qCvFLonB1RgNysAag3UrKF5kJ7SlM50nNfNSk6J6VaOF0oIPlYwabeAdr7jVJFCKlGRcyNFcJPM7qTKAjtq41arQoCExam5LGSp64TmqiiWC33iodTl2nKD/hwZ6hKKsV+pAXCj5WR1gfRpe8SPCGw8dGmlSdWBtZJuderQadYDZYKkACF0gsbZcowRa8S2ZAcdspDRZtpQRB+IlS8dyu5HvTTz5JkaZM80Iy1lB3ZnRlhVDIZDAWd6dI+0pltlDgRU/OzvkW6eTSYF4yc4/UEjEBjthTUaTsdjOcLgkIzR2SsQJdHA1cyhOoGsPM+kCS7eN0lcKvp3VkQ9slr6wDHB0ILDbBhSBzNYlZp1RkiQSOLsvmQoZcatdyCClGHuwGx8oMIZvNkqQDywd9MIKJrOqZPZhSPHCmIBetyEGbAECZFctz4i0MyWs032Jk2RxTbqhW/rMKu8oSp3utmBKjd5f8aRYKMcw8qHTbm7uEwKdroy9vtBiZ/yJoZjNMSZehRYuA4dEB4Ybl7tXxfHj7x756fDyMq+hz9/rvTMezTvreP8H);lineShape=1;strokeColor=#FF9933;fontSize=16;" parent="ueUbH-qyKybXFl0nGDGU-10" vertex="1">
          <mxGeometry x="90.35051757687643" y="24.6784884775592" width="30.046651927440205" height="1.3070700335602699" as="geometry" />
        </mxCell>
        <mxCell id="ueUbH-qyKybXFl0nGDGU-20" value="&lt;font color=&quot;#ff9933&quot;&gt;Damper&amp;nbsp;&lt;/font&gt;" style="text;html=1;strokeColor=none;fillColor=none;align=center;verticalAlign=middle;whiteSpace=wrap;rounded=0;fontSize=16;" parent="ueUbH-qyKybXFl0nGDGU-10" vertex="1">
          <mxGeometry x="23.649091746686793" width="60" height="14.78" as="geometry" />
        </mxCell>
        <mxCell id="ueUbH-qyKybXFl0nGDGU-21" value="" style="group" parent="1" vertex="1" connectable="0">
          <mxGeometry x="280.3069200448985" y="351.502463693446" width="120.10556854095222" height="34.497536306554025" as="geometry" />
        </mxCell>
        <mxCell id="ueUbH-qyKybXFl0nGDGU-22" value="" style="shape=stencil(lZzZ0tzGDYWfRres3pdrJ3kPV1mOVXEsl+xsbx8gKo6GB5xv4jv5d4PD7sZycADwQ/3ut5++//Xjh5J++/3L5799/NenH37/6UP904dSPv3y08cvn363f32of/5Qv/vx85ePf/3y+R+//PD1v3/93lf6v/7++Z/+hH9/lUtHri5U0n++/mHXI+///eUvX9f//OmXy/oq6/NRcf0cl/VrHi2/Xp+Pcn3+qkcftL6v63r7xULrd7+sn/MY8P7lqO26vp1/ebF+Xt9n2vvM1+vrUcpl/ZhHqrR+XN9/8H21I83L+r6PAu/fjibr+9E7rV/X9+92Yun1+n7k6/PbPjXwxfqerusHvv84Ur6uL0cC/RlHu55ntfPB9WvperqveZTwPnSeZh1Nz6fi84ecv50PPn9dz3O004Ju168jXZ8/yzFAn9d5eo/169hwX+toYr/1aGC/W/Vn5dPDvFgv9uLvQ/4khQ20Y8MB5Xzq1+NE7cbIw5kLum5hmMnQK5XzBB933NiHVv2F1tEJ5a63XCfeQh6n0p8CdtAN1M4E9vWUzFM20Is81ZHaI8hR56WWbOfWwHJMYO+LgOkWXcM+H/e4t2PDLVjoS2LKx4Ln2/p+fb5dGhyprV/X9aa7CW7ZBOQO/BpJwFT76ixsCxNsIQpUwxcQDW4EOpqz7+F6aS3/wVdq8wxZLwXkGuoxCSGYwFVTLcRmggj5/N9PMRw1KZ8h9QlULD7WLk6soz07LBKYs45FeyiK0ywudBaYAnQWq3c9qrjJhpHZdFNCQ18n2LsX6AEbFXT1Di7EosfR6eKmChha2GRxFm4Fjhjgo1/Y6rntNyfdw1YA7FcJm67RzTCCr/l844cAh/RaNORm9homsK6/MDH42BmWq9PoiOFt/RSvhMZQH+H423p8ftMj3YiZfX3TKyC9iwKex7wREK2YqHcmsOWIKoIYF7ju2UyhU2IUMImBmEKvFFKL/ib16ucbP2FnyqVMoF/1aLz9Bbno0TEbqQber3uYGd2qCSi+HXwPQwOoJ8y0abOtq8DcZ0h9JRBT7ER7WGEP5unpF0xzrqph8ZDsoQVoZfdAYNJAxZA0KaFJW1Y3ry7AMDrlba2qxRku2fRK7Q75wClZbBKYYepIkNteIF+BjIN6cNxtHVm8Rj3T43uBEK3yI597JSCe3lMVcPVm8qKtlm5RvtqzRlzWbluvuscvFILbQLdn64cEw3pk0G0XuB5R4YzYBMQYPJGBazYBDW8F4Wfcs1lsBr0wgSS63c+XfHULW8wtn672lYCkk32in+xZMYBn6axIwsQ4k8cCPbi9yqpURfU6c23lTDiffiHTL9SQN5TTN98LNM2JzRNT0t3NBQ09JcJ6FpL1WB/o717A0jsBexPzbidEr/fg+guvZKFATNQ5SXilEdU7Iea2fLCLxTX0k5YarStusEyCoMwYyks6H0O859SLMwyKROlSsJQLxqux1R42YiXTtKqeFZnYHJIxDOkzlBYy8kNmKkIcJIwkM3h6c/Tghn29BM+EtIEJSNpjb4TccFEq046U/IUdkbDJFhmoWjND9HT6HCzBBCSUeBbAryR78AgPluBUikQGczmkF4aXBUwyEHNwKkzGxtgzA4iZTH3YpqtUnQqSXFFX7RGbjOeurkV1gxkLVQujm21xyLE2TEEt+In9mCeftIcHgfzM7NEpTd1DY+pjLvXb5uiJ77FUSvI9c/SFtHUrte8VHdj0Cspnjp4C7gr8p5MNcHEmIERd5izABISdYJ5uFU3sB1q0rRdNaohJVlWKeKFarFCztQ13FpAil4cSfiNx9YX5WxOYcsv7fMQrASF8a0VNXS04YvZ6JiCu3lASkSUmILme4zCwthU4KPPcVAswAcEwTviCX11dU+jOLLcJjIAlG53SOHm5ZwHa9FQs+e6VplZ9OmP6tQKAfhjUvcBWFPCmB2AbgJaQmxHT7wcJ9iRQ4JV2aNvoCZ3YrloLaBt1aT+KQg+BhQa0Q2fFN/rkXqBra45FH6KUdtdem8Yl0z3OiPwkQBDUBJS04sLynpoEtMY3HSglJ8rolZa6ylYw3dtb+RJTDWJwTEDQmLNSdA9bA6IJUEJpAiXoEnk+FxDVGFi5cgE5pY42vUNSbBdHFYS91ZHZxVEV1I81dMYQyDUB4a3am9aP0PvhtC7Zw1aQ681DrBorCKB6b3XGrt7U1ZBSqF935NLuJAZGiJuX4hL5zbYXZqI3B7uRlY1X50bK+qrKsTG036gfd7DcKPhCJvfGhDh7uDHSgcnxjRtoWPy9cTT17K/7f11ZQah74ywzJgPRHbuR/iH//U5gaT3KdIkSyx160npmVxYhVmbvOk/67wkxpTeBN7Qq4CuNsyv3WYBOqd+g70bq3U+C8UkAbzokBE430x6qVk871wX3g0B7Eli0h6K8iXe70illzaYt5SAScSdte+kTidm1w6YXVk/XCqWQhZv2hCD0K2EL6NRjHYmz0YArRz55jldpkxZb8tvETCrx3OznqV8LAnSsTaOoXRw2vtaQNlXsVPYkX8LuQotboSPKPB/xiKvqKdWJZQRnQq43XZmzX6HC5HUH+oWi5GmpWHw0AS3oDj6lUA/N+fTnrwQkijp/Rcea1abzZO4kazZaMif5KRxrZxMNXcs1M9saii3etkGs91KGyRsSSGAGdobj9BzaIWSOjFKO2RWGjobZ6Ax9VzOhM55VpxucpSbWu+ge7Biou2Y+ovKDe0znBMMrql8GIlZGCGdbFPiz2PM5sV9UgNKBsTUCrUc94pXAkC6njiFrBIbJi3+g3iPQ5N5iS7WBR8fhU1CkdMAEhLl3cELKl5R8NHeP5YrAkjn2JtVIocVusAHlm4YfyqhNoAXvTWHXBCSPM1dJqjFDbSAzDPUipwAs9gH5zJAemoHtNfGMJmb4bj1XRcpcdHVjkABXsQTkfdNyRNy/M+ZNhxBFxDEUaNghYem+h9I635pZo3iAurDhx9Ba5KOofdwg6goMMHniHsY7+kAM6rg8zPFsbmXR2auF+UwP1YRZMU3sTW96TiyVeQFUSnEJlc8E5KYXOyXPIiX8NOSYexiPWgw0erBQx+60hxRq2Y9elVcC2m/O0L4HT2wWQiVF71G4erGRMF75psXt9bNl9ZWA1u+YxTaBdv0F54re9LOJTU/uZ8vaM2ugFe0hKxwrbzcdJ56oqtNzcMZcv/NjFWdcuTcyqefzISxSjUDnZp6Y9WKDuPuKxHpbmq6XiZ7P61CSV/KQdguEQN1oD99a/Z+oUArTFg10CIvnbA1LKSu4sRzXAjIZzBW1pBXCyVlfjSh3YGNEXarengtQL/9S3nF1NFGz4Di+TyRfHSHbYDdjAuJmFiPEOtTzLS401ZAmTh7x/tYm/xDgkqIJCAa1wE5IwIdh4mwbbbqF8YKFdSMfSYrsLN10C+WNgXmlNyqFXiec2mqa6tpfyPO5gDgy7uStTXsjSkE2yn9BfOtEN+MCV9XYCFvNL0rRP/PnKWroRco8HF4DvsoNHV8NPZu2ZwqiNfTNljdeJmm/VnkzJhkqZZXrrmXpQGxdLDCDdjfcQxmhgSQjEPAGrWChFW66NGXgRuPB5FAOmYlndKse6+w83xomQ1ZBbTUBibpr8FBvmKsyb49jw2FWer2Z0b0D93hxoUHSkyyeu5eIZReHc8ahUb3vd18O0KawhjX/Esgow3SUArmATDJnHnIPAj6o/+aVhIxKPBUfBMxCiNZwges9uPMGZ+zfOhJXmTHZNaA9AhmFvRehgp/52wF5KcfnX7kAbTUB/fBGwm51n9K4vpJ/8oZ+IXQkehCj72J0HUtqHB8sQIn39hyHBOL89sbRqhza/wb3MHuJKDDS1IGVQ13XoDdpq4+0C0k+cbxlq6f0rknqT9F73gWjQxi63R3HVZYG9d2wLh0+NLT56yRT3bClJsh2q5rO/ebDRzIXMrlCNsLodkE8PMI0AvdpjdDGwpXTEabUEppl7ETumGL0YJQL6xlNE72ReQZbRwudNKZZ4fCRFG6irJohWRgn/FXDpD131xZtfV2Jo/4N70n6E6HUfPMhO3FAZl/8oTz1DzygHtgL7+WF5yedlts82p10VOZbz9+L9ULPe9sivr+EgKfGyBcCYmDe5ggOLint7L1vuGEJAJubJlMYTOeRzqQU8mb6NfCKe2DFM67nGe2kSMUUjpBK0nLKrshY/PEvV75bb//49pnMHz/9/PPXr2w+/3/9rKb96esnOeuf/ws=);lineShape=1;strokeColor=#FF9933;fontSize=16;" parent="ueUbH-qyKybXFl0nGDGU-21" vertex="1">
          <mxGeometry width="120.10556854095223" height="11.261142906682304" as="geometry" />
        </mxCell>
        <mxCell id="ueUbH-qyKybXFl0nGDGU-23" value="&lt;font color=&quot;#ff9933&quot;&gt;Spring&lt;/font&gt;" style="text;html=1;strokeColor=none;fillColor=none;align=center;verticalAlign=middle;whiteSpace=wrap;rounded=0;fontSize=16;" parent="ueUbH-qyKybXFl0nGDGU-21" vertex="1">
          <mxGeometry x="23.343079955101473" y="4.497536306554025" width="60" height="30" as="geometry" />
        </mxCell>
        <mxCell id="ueUbH-qyKybXFl0nGDGU-24" value="" style="ellipse;whiteSpace=wrap;html=1;aspect=fixed;fillColor=#000000;" parent="1" vertex="1">
          <mxGeometry x="406" y="383" width="17" height="17" as="geometry" />
        </mxCell>
        <mxCell id="ueUbH-qyKybXFl0nGDGU-25" value="" style="ellipse;whiteSpace=wrap;html=1;aspect=fixed;fillColor=#000000;" parent="1" vertex="1">
          <mxGeometry x="497" y="383" width="17" height="17" as="geometry" />
        </mxCell>
        <mxCell id="BacBxaonxk3YlPxS8UFW-2" value="" style="endArrow=none;dashed=1;html=1;rounded=0;fontSize=12;startSize=8;endSize=8;curved=1;entryX=0.5;entryY=1;entryDx=0;entryDy=0;strokeColor=#FF0080;" parent="1" target="BacBxaonxk3YlPxS8UFW-20" edge="1">
          <mxGeometry width="50" height="50" relative="1" as="geometry">
            <mxPoint x="145" y="765" as="sourcePoint" />
            <mxPoint x="245" y="685" as="targetPoint" />
          </mxGeometry>
        </mxCell>
        <mxCell id="BacBxaonxk3YlPxS8UFW-3" value="" style="rounded=0;whiteSpace=wrap;html=1;fontSize=16;fillColor=#000000;" parent="1" vertex="1">
          <mxGeometry x="185" y="775" width="120" height="60" as="geometry" />
        </mxCell>
        <mxCell id="BacBxaonxk3YlPxS8UFW-4" value="" style="endArrow=none;html=1;rounded=0;fontSize=12;startSize=8;endSize=8;curved=1;" parent="1" edge="1">
          <mxGeometry width="50" height="50" relative="1" as="geometry">
            <mxPoint x="65" y="835" as="sourcePoint" />
            <mxPoint x="385" y="835" as="targetPoint" />
          </mxGeometry>
        </mxCell>
        <mxCell id="BacBxaonxk3YlPxS8UFW-5" value="" style="endArrow=none;html=1;rounded=0;fontSize=12;startSize=8;endSize=8;curved=1;" parent="1" edge="1">
          <mxGeometry width="50" height="50" relative="1" as="geometry">
            <mxPoint x="65" y="835" as="sourcePoint" />
            <mxPoint x="65" y="675" as="targetPoint" />
          </mxGeometry>
        </mxCell>
        <mxCell id="BacBxaonxk3YlPxS8UFW-6" value="" style="endArrow=none;dashed=1;html=1;rounded=0;fontSize=12;startSize=8;endSize=8;curved=1;" parent="1" edge="1">
          <mxGeometry width="50" height="50" relative="1" as="geometry">
            <mxPoint x="245" y="775" as="sourcePoint" />
            <mxPoint x="245" y="705" as="targetPoint" />
          </mxGeometry>
        </mxCell>
        <mxCell id="BacBxaonxk3YlPxS8UFW-7" value="" style="endArrow=classicThin;html=1;rounded=0;fontSize=12;startSize=8;endSize=8;curved=1;exitX=1.031;exitY=0.506;exitDx=0;exitDy=0;exitPerimeter=0;endFill=1;" parent="1" source="BacBxaonxk3YlPxS8UFW-3" edge="1">
          <mxGeometry width="50" height="50" relative="1" as="geometry">
            <mxPoint x="205" y="835" as="sourcePoint" />
            <mxPoint x="345" y="805" as="targetPoint" />
          </mxGeometry>
        </mxCell>
        <mxCell id="BacBxaonxk3YlPxS8UFW-8" value="" style="endArrow=classicThin;startArrow=none;html=1;rounded=0;fontSize=12;startSize=8;endSize=8;curved=1;startFill=0;endFill=1;" parent="1" edge="1">
          <mxGeometry width="50" height="50" relative="1" as="geometry">
            <mxPoint x="65" y="715" as="sourcePoint" />
            <mxPoint x="245" y="715" as="targetPoint" />
          </mxGeometry>
        </mxCell>
        <mxCell id="BacBxaonxk3YlPxS8UFW-9" value="`d`" style="text;html=1;strokeColor=none;fillColor=none;align=center;verticalAlign=middle;whiteSpace=wrap;rounded=0;fontSize=16;" parent="1" vertex="1">
          <mxGeometry x="155" y="695" width="20.34" height="20" as="geometry" />
        </mxCell>
        <mxCell id="BacBxaonxk3YlPxS8UFW-10" value="`F_\text{input}`" style="text;html=1;strokeColor=none;fillColor=none;align=center;verticalAlign=middle;whiteSpace=wrap;rounded=0;fontSize=16;" parent="1" vertex="1">
          <mxGeometry x="326" y="779" width="20.34" height="20" as="geometry" />
        </mxCell>
        <mxCell id="BacBxaonxk3YlPxS8UFW-11" value="" style="endArrow=classicThin;startArrow=none;html=1;rounded=0;fontSize=12;startSize=8;endSize=8;curved=1;startFill=0;endFill=1;" parent="1" edge="1">
          <mxGeometry width="50" height="50" relative="1" as="geometry">
            <mxPoint x="65.24000000000001" y="745" as="sourcePoint" />
            <mxPoint x="145" y="745" as="targetPoint" />
          </mxGeometry>
        </mxCell>
        <mxCell id="BacBxaonxk3YlPxS8UFW-12" value="" style="endArrow=classicThin;startArrow=none;html=1;rounded=0;fontSize=12;startSize=8;endSize=8;curved=1;startFill=0;endFill=1;" parent="1" edge="1">
          <mxGeometry width="50" height="50" relative="1" as="geometry">
            <mxPoint x="145" y="745" as="sourcePoint" />
            <mxPoint x="245" y="745" as="targetPoint" />
          </mxGeometry>
        </mxCell>
        <mxCell id="BacBxaonxk3YlPxS8UFW-13" value="m" style="text;html=1;strokeColor=none;fillColor=none;align=center;verticalAlign=middle;whiteSpace=wrap;rounded=0;fontSize=16;" parent="1" vertex="1">
          <mxGeometry x="234.82999999999998" y="795" width="20.34" height="20" as="geometry" />
        </mxCell>
        <mxCell id="BacBxaonxk3YlPxS8UFW-14" value="`d_e`" style="text;html=1;strokeColor=none;fillColor=none;align=center;verticalAlign=middle;whiteSpace=wrap;rounded=0;fontSize=16;" parent="1" vertex="1">
          <mxGeometry x="95" y="725" width="20.34" height="20" as="geometry" />
        </mxCell>
        <mxCell id="BacBxaonxk3YlPxS8UFW-15" value="`x`" style="text;html=1;strokeColor=none;fillColor=none;align=center;verticalAlign=middle;whiteSpace=wrap;rounded=0;fontSize=16;" parent="1" vertex="1">
          <mxGeometry x="178" y="725" width="20.34" height="20" as="geometry" />
        </mxCell>
        <mxCell id="BacBxaonxk3YlPxS8UFW-16" value="" style="endArrow=classicThin;html=1;rounded=0;fontSize=12;startSize=8;endSize=8;curved=1;exitX=1.031;exitY=0.506;exitDx=0;exitDy=0;exitPerimeter=0;endFill=1;" parent="1" edge="1">
          <mxGeometry width="50" height="50" relative="1" as="geometry">
            <mxPoint x="184.99999999999994" y="795" as="sourcePoint" />
            <mxPoint x="148.99999999999994" y="795" as="targetPoint" />
          </mxGeometry>
        </mxCell>
        <mxCell id="BacBxaonxk3YlPxS8UFW-17" value="`F_\text{damper}`" style="text;html=1;strokeColor=none;fillColor=none;align=center;verticalAlign=middle;whiteSpace=wrap;rounded=0;fontSize=16;" parent="1" vertex="1">
          <mxGeometry x="110.99999999999997" y="768" width="40" height="20" as="geometry" />
        </mxCell>
        <mxCell id="BacBxaonxk3YlPxS8UFW-18" value="" style="endArrow=classicThin;html=1;rounded=0;fontSize=12;startSize=8;endSize=8;curved=1;exitX=1.031;exitY=0.506;exitDx=0;exitDy=0;exitPerimeter=0;endFill=1;" parent="1" edge="1">
          <mxGeometry width="50" height="50" relative="1" as="geometry">
            <mxPoint x="185.32999999999998" y="825" as="sourcePoint" />
            <mxPoint x="149.32999999999998" y="825" as="targetPoint" />
          </mxGeometry>
        </mxCell>
        <mxCell id="BacBxaonxk3YlPxS8UFW-19" value="`F_\text{spring}`" style="text;html=1;strokeColor=none;fillColor=none;align=center;verticalAlign=middle;whiteSpace=wrap;rounded=0;fontSize=16;" parent="1" vertex="1">
          <mxGeometry x="106.99999999999997" y="799" width="40" height="20" as="geometry" />
        </mxCell>
        <mxCell id="BacBxaonxk3YlPxS8UFW-20" value="&lt;font color=&quot;#ff0080&quot;&gt;equilibrium point&lt;/font&gt;" style="text;html=1;strokeColor=none;fillColor=none;align=center;verticalAlign=middle;whiteSpace=wrap;rounded=0;fontSize=16;" parent="1" vertex="1">
          <mxGeometry x="115.34000000000003" y="645" width="60" height="30" as="geometry" />
        </mxCell>
        <mxCell id="BacBxaonxk3YlPxS8UFW-22" value="$$&lt;br&gt;m\ddot{x}(t) + b\dot{x}(t) + kx(t) - f(t) = 0&lt;br&gt;$$" style="rounded=0;whiteSpace=wrap;html=1;fontSize=16;fillColor=#000000;" parent="1" vertex="1">
          <mxGeometry x="260" y="500" width="320" height="60" as="geometry" />
        </mxCell>
        <mxCell id="BacBxaonxk3YlPxS8UFW-23" value="" style="endArrow=classic;html=1;rounded=0;fontSize=12;startSize=8;endSize=8;entryX=0;entryY=0.5;entryDx=0;entryDy=0;" parent="1" target="BacBxaonxk3YlPxS8UFW-22" edge="1">
          <mxGeometry width="50" height="50" relative="1" as="geometry">
            <mxPoint x="191" y="530" as="sourcePoint" />
            <mxPoint x="205" y="521" as="targetPoint" />
          </mxGeometry>
        </mxCell>
        <mxCell id="BacBxaonxk3YlPxS8UFW-24" value="" style="endArrow=classic;html=1;rounded=0;fontSize=12;startSize=8;endSize=8;exitX=1;exitY=0.5;exitDx=0;exitDy=0;" parent="1" source="BacBxaonxk3YlPxS8UFW-22" edge="1">
          <mxGeometry width="50" height="50" relative="1" as="geometry">
            <mxPoint x="689" y="555" as="sourcePoint" />
            <mxPoint x="640" y="530" as="targetPoint" />
          </mxGeometry>
        </mxCell>
        <mxCell id="BacBxaonxk3YlPxS8UFW-25" value="$$f(t)$$" style="text;html=1;align=center;verticalAlign=middle;whiteSpace=wrap;rounded=0;fontSize=16;" parent="1" vertex="1">
          <mxGeometry x="195.17000000000002" y="500" width="60" height="30" as="geometry" />
        </mxCell>
        <mxCell id="BacBxaonxk3YlPxS8UFW-26" value="$$x(t)$$" style="text;html=1;align=center;verticalAlign=middle;whiteSpace=wrap;rounded=0;fontSize=16;" parent="1" vertex="1">
          <mxGeometry x="580" y="500" width="60" height="30" as="geometry" />
        </mxCell>
        <mxCell id="BacBxaonxk3YlPxS8UFW-27" value="System model" style="text;html=1;align=center;verticalAlign=middle;whiteSpace=wrap;rounded=0;fontSize=16;" parent="1" vertex="1">
          <mxGeometry x="365" y="470" width="110" height="30" as="geometry" />
        </mxCell>
      </root>
    </mxGraphModel>
  </diagram>
  <diagram id="QW1drV0gw0dhMFyGy3Qp" name="Double Integrator">
    <mxGraphModel dx="486" dy="290" grid="0" gridSize="10" guides="1" tooltips="1" connect="1" arrows="1" fold="1" page="1" pageScale="1" pageWidth="827" pageHeight="1169" background="#000000" math="1" shadow="0">
      <root>
        <mxCell id="0" />
        <mxCell id="1" parent="0" />
        <mxCell id="eSy3K-FPf-pIVRY6J5QK-1" value="" style="rounded=0;whiteSpace=wrap;html=1;fillColor=none;" vertex="1" parent="1">
          <mxGeometry x="140" y="200" width="60" height="40" as="geometry" />
        </mxCell>
        <mxCell id="eSy3K-FPf-pIVRY6J5QK-2" value="" style="endArrow=classic;html=1;rounded=0;fontSize=12;startSize=5;endSize=4;curved=1;endFill=1;" edge="1" parent="1">
          <mxGeometry width="50" height="50" relative="1" as="geometry">
            <mxPoint x="120" y="240" as="sourcePoint" />
            <mxPoint x="348" y="240" as="targetPoint" />
          </mxGeometry>
        </mxCell>
        <mxCell id="eSy3K-FPf-pIVRY6J5QK-3" value="" style="endArrow=none;html=1;rounded=0;fontSize=12;startSize=8;endSize=8;curved=1;dashed=1;" edge="1" parent="1">
          <mxGeometry width="50" height="50" relative="1" as="geometry">
            <mxPoint x="280" y="260" as="sourcePoint" />
            <mxPoint x="280" y="220" as="targetPoint" />
          </mxGeometry>
        </mxCell>
        <mxCell id="eSy3K-FPf-pIVRY6J5QK-5" value="&lt;font style=&quot;font-size: 14px;&quot;&gt;$$q$$&lt;/font&gt;" style="text;html=1;align=center;verticalAlign=middle;whiteSpace=wrap;rounded=0;fontSize=16;" vertex="1" parent="1">
          <mxGeometry x="330" y="240" width="20" height="20" as="geometry" />
        </mxCell>
        <mxCell id="eSy3K-FPf-pIVRY6J5QK-6" value="&lt;p&gt;&lt;font style=&quot;font-size: 14px;&quot;&gt;$$q = 0$$&lt;/font&gt;&lt;/p&gt;" style="text;html=1;align=center;verticalAlign=middle;whiteSpace=wrap;rounded=0;fontSize=16;" vertex="1" parent="1">
          <mxGeometry x="256" y="197" width="50" height="30" as="geometry" />
        </mxCell>
        <mxCell id="eSy3K-FPf-pIVRY6J5QK-7" value="" style="endArrow=none;html=1;rounded=0;fontSize=12;startSize=8;endSize=8;curved=1;dashed=1;" edge="1" parent="1">
          <mxGeometry width="50" height="50" relative="1" as="geometry">
            <mxPoint x="170" y="260" as="sourcePoint" />
            <mxPoint x="169.82999999999998" y="240" as="targetPoint" />
          </mxGeometry>
        </mxCell>
        <mxCell id="eSy3K-FPf-pIVRY6J5QK-9" value="" style="endArrow=classic;html=1;rounded=0;fontSize=12;startSize=8;endSize=2;curved=1;dashed=1;" edge="1" parent="1">
          <mxGeometry width="50" height="50" relative="1" as="geometry">
            <mxPoint x="280" y="250" as="sourcePoint" />
            <mxPoint x="170" y="250" as="targetPoint" />
          </mxGeometry>
        </mxCell>
        <mxCell id="eSy3K-FPf-pIVRY6J5QK-10" value="&lt;font style=&quot;font-size: 12px;&quot;&gt;$$-q$$&lt;/font&gt;" style="text;html=1;align=center;verticalAlign=middle;whiteSpace=wrap;rounded=0;fontSize=16;" vertex="1" parent="1">
          <mxGeometry x="205" y="247" width="40" height="20" as="geometry" />
        </mxCell>
        <mxCell id="eSy3K-FPf-pIVRY6J5QK-11" value="" style="endArrow=classic;html=1;rounded=0;fontSize=12;startSize=8;endSize=2;curved=1;dashed=1;" edge="1" parent="1">
          <mxGeometry width="50" height="50" relative="1" as="geometry">
            <mxPoint x="280" y="249.88" as="sourcePoint" />
            <mxPoint x="320" y="250" as="targetPoint" />
          </mxGeometry>
        </mxCell>
        <mxCell id="eSy3K-FPf-pIVRY6J5QK-12" value="&lt;font style=&quot;font-size: 12px;&quot;&gt;$$+q$$&lt;/font&gt;" style="text;html=1;align=center;verticalAlign=middle;whiteSpace=wrap;rounded=0;fontSize=16;" vertex="1" parent="1">
          <mxGeometry x="290" y="247" width="40" height="20" as="geometry" />
        </mxCell>
        <mxCell id="eSy3K-FPf-pIVRY6J5QK-13" value="" style="endArrow=classic;html=1;rounded=0;fontSize=12;startSize=5;endSize=4;curved=1;strokeColor=#FF9933;" edge="1" parent="1">
          <mxGeometry width="50" height="50" relative="1" as="geometry">
            <mxPoint x="171" y="219" as="sourcePoint" />
            <mxPoint x="240" y="219" as="targetPoint" />
          </mxGeometry>
        </mxCell>
        <mxCell id="eSy3K-FPf-pIVRY6J5QK-14" value="&lt;p&gt;&lt;font color=&quot;#3399ff&quot; style=&quot;font-size: 14px;&quot;&gt;$$F = u$$&lt;/font&gt;&lt;/p&gt;" style="text;html=1;align=center;verticalAlign=middle;whiteSpace=wrap;rounded=0;fontSize=16;" vertex="1" parent="1">
          <mxGeometry x="200" y="190" width="50" height="30" as="geometry" />
        </mxCell>
        <mxCell id="eSy3K-FPf-pIVRY6J5QK-15" value="&lt;p&gt;&lt;font color=&quot;#3399ff&quot; style=&quot;font-size: 14px;&quot;&gt;$$m = 1$$&lt;/font&gt;&lt;/p&gt;" style="text;html=1;align=center;verticalAlign=middle;whiteSpace=wrap;rounded=0;fontSize=16;" vertex="1" parent="1">
          <mxGeometry x="155" y="220" width="30" height="20" as="geometry" />
        </mxCell>
      </root>
    </mxGraphModel>
  </diagram>
</mxfile>
